<svg width="501" height="336" viewBox="0 0 501 336" fill="none" xmlns="http://www.w3.org/2000/svg">
<path d="M300.311 334.594L423.511 288.368L424.399 278.517L302.105 324.733L300.311 334.594Z" fill="white" stroke="#121214" stroke-width="0.946608" stroke-linecap="round" stroke-linejoin="round"/>
<path d="M279.567 171.188C277.402 171.171 275.309 170.408 273.642 169.027C271.548 167.299 270.172 164.853 269.783 162.167C269.734 161.687 269.872 161.206 270.167 160.825C270.463 160.443 270.893 160.19 271.37 160.117C271.847 160.044 272.333 160.157 272.729 160.432C273.125 160.708 273.4 161.125 273.498 161.597C273.749 163.36 274.647 164.965 276.016 166.103C276.611 166.617 277.311 166.995 278.067 167.211C278.823 167.428 279.617 167.478 280.394 167.358C281.171 167.238 281.913 166.95 282.568 166.515C283.223 166.081 283.776 165.509 284.188 164.839C284.472 164.445 284.898 164.177 285.376 164.089C285.854 164.002 286.347 164.103 286.752 164.371C287.157 164.639 287.443 165.053 287.55 165.527C287.656 166.001 287.575 166.498 287.324 166.914C286.62 168.018 285.689 168.96 284.592 169.677C283.496 170.394 282.26 170.87 280.966 171.072C280.503 171.15 280.035 171.188 279.567 171.188Z" fill="#121214"/>
<path d="M261.785 176.678C257.028 176.678 252.773 172.896 251.972 167.666C251.934 167.423 251.944 167.174 252.001 166.935C252.059 166.696 252.164 166.47 252.309 166.271C252.454 166.072 252.637 165.903 252.848 165.775C253.058 165.647 253.292 165.562 253.535 165.524C254.027 165.46 254.525 165.587 254.926 165.88C255.327 166.173 255.599 166.609 255.687 167.097C256.246 170.773 259.344 173.359 262.576 172.886C263.352 172.76 264.092 172.47 264.747 172.036C265.403 171.601 265.958 171.033 266.377 170.368C266.661 169.974 267.087 169.705 267.565 169.618C268.043 169.531 268.536 169.632 268.941 169.9C269.346 170.168 269.632 170.582 269.739 171.056C269.845 171.53 269.764 172.027 269.513 172.442C268.809 173.547 267.878 174.489 266.781 175.206C265.685 175.923 264.449 176.398 263.155 176.601C262.701 176.664 262.243 176.69 261.785 176.678Z" fill="#121214"/>
<path d="M245.517 182.92C243.354 182.906 241.262 182.146 239.593 180.769C237.501 179.039 236.126 176.595 235.734 173.909C235.685 173.429 235.823 172.949 236.118 172.567C236.413 172.186 236.844 171.932 237.321 171.859C237.797 171.786 238.284 171.899 238.68 172.174C239.076 172.45 239.351 172.867 239.448 173.34C239.7 175.102 240.598 176.708 241.967 177.845C242.568 178.349 243.269 178.722 244.024 178.938C244.778 179.154 245.57 179.209 246.347 179.1C247.122 178.973 247.86 178.683 248.514 178.249C249.168 177.815 249.722 177.246 250.139 176.581C250.454 176.276 250.865 176.087 251.302 176.046C251.739 176.005 252.177 176.115 252.544 176.356C252.911 176.598 253.184 176.958 253.318 177.376C253.453 177.794 253.441 178.246 253.284 178.656C252.577 179.76 251.644 180.701 250.546 181.418C249.449 182.135 248.211 182.611 246.916 182.814C246.454 182.889 245.986 182.924 245.517 182.92Z" fill="#121214"/>
<path d="M227.735 188.015C222.978 188.015 218.723 184.223 217.923 179.003C217.873 178.754 217.874 178.498 217.926 178.25C217.978 178.001 218.08 177.766 218.225 177.558C218.37 177.35 218.556 177.173 218.772 177.039C218.987 176.904 219.227 176.815 219.478 176.776C219.729 176.737 219.985 176.749 220.231 176.811C220.477 176.874 220.708 176.985 220.909 177.139C221.111 177.293 221.28 177.487 221.405 177.708C221.53 177.928 221.609 178.172 221.637 178.424C222.207 182.101 225.294 184.686 228.526 184.214C229.301 184.087 230.04 183.798 230.695 183.366C231.35 182.933 231.907 182.367 232.328 181.705C232.455 181.481 232.626 181.285 232.832 181.13C233.038 180.975 233.273 180.864 233.524 180.803C233.774 180.743 234.035 180.735 234.288 180.779C234.542 180.823 234.784 180.919 234.999 181.061C235.215 181.203 235.398 181.387 235.539 181.603C235.68 181.818 235.776 182.061 235.819 182.315C235.863 182.569 235.854 182.829 235.792 183.079C235.731 183.329 235.619 183.564 235.463 183.77C234.758 184.874 233.827 185.816 232.731 186.535C231.635 187.253 230.399 187.731 229.105 187.938C228.651 187.997 228.193 188.022 227.735 188.015Z" fill="#121214"/>
<path d="M209.529 195.251C204.782 195.251 200.527 191.469 199.716 186.24C199.746 185.802 199.924 185.387 200.221 185.063C200.518 184.74 200.916 184.527 201.35 184.461C201.784 184.395 202.228 184.478 202.608 184.698C202.988 184.918 203.282 185.261 203.441 185.67C204 189.346 207.097 191.923 210.33 191.459C211.105 191.331 211.844 191.041 212.499 190.607C213.155 190.173 213.711 189.605 214.131 188.941C214.415 188.547 214.841 188.279 215.319 188.191C215.797 188.104 216.29 188.205 216.695 188.473C217.1 188.741 217.386 189.155 217.492 189.629C217.599 190.103 217.518 190.6 217.267 191.016C216.561 192.119 215.63 193.06 214.534 193.777C213.438 194.494 212.202 194.97 210.908 195.174C210.451 195.233 209.99 195.259 209.529 195.251Z" fill="#121214"/>
<path d="M191.901 201.706C189.737 201.693 187.645 200.933 185.977 199.554C183.885 197.825 182.509 195.38 182.118 192.694C182.069 192.215 182.206 191.734 182.502 191.353C182.797 190.971 183.228 190.718 183.704 190.645C184.181 190.572 184.668 190.685 185.064 190.96C185.46 191.236 185.735 191.653 185.832 192.125C186.084 193.887 186.981 195.493 188.35 196.631C188.946 197.145 189.646 197.523 190.402 197.739C191.157 197.956 191.951 198.006 192.728 197.886C193.505 197.765 194.247 197.478 194.902 197.043C195.557 196.608 196.11 196.036 196.523 195.367C196.838 195.061 197.248 194.873 197.686 194.832C198.123 194.791 198.561 194.9 198.928 195.142C199.294 195.384 199.568 195.744 199.702 196.162C199.837 196.58 199.825 197.031 199.668 197.441C198.961 198.545 198.028 199.487 196.93 200.204C195.832 200.92 194.595 201.396 193.3 201.6C192.837 201.674 192.37 201.71 191.901 201.706Z" fill="#121214"/>
<path d="M303.688 328.583L405.642 291.021" stroke="#121214" stroke-width="0.473303" stroke-linecap="round" stroke-linejoin="round"/>
<path d="M301.005 331.718L366.287 307.568" stroke="#121214" stroke-width="0.473303" stroke-linecap="round" stroke-linejoin="round"/>
<path d="M177.554 197.374V209.019L300.311 334.594L302.106 324.733L177.554 197.374Z" fill="white" stroke="#121214" stroke-width="0.946608" stroke-linecap="round" stroke-linejoin="round"/>
<path d="M179.377 206.511L252.271 279.395" stroke="#121214" stroke-width="0.473303" stroke-linecap="round" stroke-linejoin="round"/>
<path d="M213.812 237.81L289.823 315.615" stroke="#121214" stroke-width="0.473303" stroke-linecap="round" stroke-linejoin="round"/>
<path d="M177.554 197.374L302.106 324.733L424.399 278.517L297.648 157.043L177.554 197.374Z" fill="white" stroke="#121214" stroke-width="0.946608" stroke-linecap="round" stroke-linejoin="round"/>
<path d="M176.029 195.367L60.6729 87.7003L178.837 50.853L296.741 155.124L176.029 195.367Z" fill="white" stroke="#121214" stroke-width="0.946608" stroke-linecap="round" stroke-linejoin="round"/>
<path d="M78.3296 88.414L112.099 77.8972" stroke="#121214" stroke-width="1.00877" stroke-linecap="round" stroke-linejoin="round"/>
<path d="M83.3179 92.2931L117.087 81.7764" stroke="#121214" stroke-width="1.00877" stroke-linecap="round" stroke-linejoin="round"/>
<path d="M198.086 198.281C197.719 198.283 197.359 198.176 197.053 197.972C196.646 197.69 196.363 197.262 196.263 196.778C196.162 196.293 196.252 195.788 196.513 195.367C197.477 193.87 197.849 192.067 197.555 190.311C197.391 188.98 196.835 187.728 195.957 186.714C195.079 185.7 193.919 184.971 192.625 184.619C192.158 184.491 191.758 184.188 191.508 183.772C191.259 183.357 191.18 182.861 191.287 182.389C191.394 181.916 191.679 181.503 192.082 181.236C192.486 180.968 192.978 180.867 193.455 180.952C195.485 181.473 197.315 182.587 198.708 184.153C200.102 185.719 200.998 187.665 201.279 189.742C201.72 192.427 201.142 195.18 199.658 197.461C199.481 197.713 199.246 197.919 198.972 198.062C198.698 198.205 198.394 198.28 198.086 198.281Z" fill="#121214"/>
<path d="M215.694 191.826C215.327 191.828 214.968 191.721 214.662 191.517C214.455 191.382 214.277 191.207 214.139 191.002C214 190.798 213.903 190.568 213.854 190.325C213.804 190.083 213.804 189.834 213.851 189.591C213.899 189.348 213.994 189.118 214.131 188.912C215.091 187.413 215.462 185.613 215.173 183.856C215.01 182.525 214.453 181.273 213.575 180.259C212.697 179.245 211.537 178.516 210.243 178.164C209.99 178.122 209.749 178.029 209.534 177.891C209.318 177.753 209.134 177.572 208.99 177.36C208.847 177.147 208.749 176.908 208.702 176.657C208.654 176.405 208.658 176.147 208.714 175.897C208.77 175.647 208.876 175.412 209.027 175.204C209.177 174.997 209.367 174.822 209.587 174.691C209.807 174.56 210.051 174.476 210.305 174.442C210.559 174.409 210.817 174.428 211.063 174.497C213.094 175.018 214.923 176.132 216.317 177.698C217.711 179.264 218.606 181.21 218.888 183.287C219.329 185.972 218.751 188.725 217.267 191.006C217.09 191.258 216.854 191.465 216.58 191.607C216.307 191.75 216.003 191.825 215.694 191.826Z" fill="#121214"/>
<path d="M285.751 167.763C285.421 167.746 285.1 167.645 284.821 167.469C284.541 167.292 284.311 167.047 284.153 166.757C283.995 166.466 283.914 166.14 283.919 165.809C283.923 165.478 284.013 165.154 284.179 164.868C285.144 163.375 285.515 161.575 285.221 159.822C285.059 158.489 284.503 157.235 283.625 156.219C282.747 155.203 281.586 154.472 280.29 154.12C280.049 154.067 279.821 153.968 279.619 153.826C279.417 153.685 279.245 153.505 279.113 153.297C278.981 153.089 278.892 152.856 278.851 152.613C278.809 152.37 278.817 152.121 278.872 151.881C278.991 151.4 279.292 150.983 279.71 150.717C280.129 150.451 280.634 150.357 281.12 150.453C283.151 150.974 284.98 152.088 286.374 153.654C287.768 155.22 288.663 157.166 288.945 159.243C289.387 161.929 288.805 164.684 287.314 166.962C287.14 167.214 286.906 167.418 286.633 167.558C286.36 167.698 286.058 167.768 285.751 167.763Z" fill="#121214"/>
<path d="M267.94 173.234C267.573 173.236 267.214 173.128 266.908 172.925C266.701 172.79 266.523 172.614 266.385 172.41C266.246 172.205 266.149 171.975 266.1 171.733C266.051 171.491 266.05 171.241 266.097 170.999C266.145 170.756 266.24 170.525 266.377 170.32C267.338 168.821 267.709 167.02 267.419 165.264C267.256 163.933 266.699 162.681 265.821 161.667C264.943 160.653 263.783 159.924 262.489 159.572C262.237 159.53 261.995 159.437 261.78 159.299C261.565 159.16 261.38 158.98 261.237 158.767C261.093 158.555 260.995 158.316 260.948 158.065C260.9 157.813 260.905 157.554 260.96 157.305C261.016 157.055 261.123 156.819 261.273 156.612C261.423 156.405 261.614 156.23 261.833 156.099C262.053 155.968 262.298 155.883 262.551 155.85C262.805 155.817 263.063 155.835 263.309 155.905C265.341 156.423 267.172 157.537 268.566 159.103C269.96 160.669 270.855 162.617 271.134 164.695C271.575 167.38 270.997 170.133 269.513 172.414C269.336 172.666 269.1 172.872 268.827 173.015C268.553 173.158 268.249 173.233 267.94 173.234Z" fill="#121214"/>
<path d="M251.673 179.505C251.305 179.504 250.945 179.393 250.64 179.187C250.233 178.905 249.95 178.477 249.85 177.992C249.749 177.507 249.839 177.002 250.1 176.582C251.069 175.087 251.444 173.283 251.152 171.526C250.988 170.195 250.432 168.942 249.554 167.929C248.676 166.915 247.516 166.185 246.221 165.833C245.969 165.791 245.728 165.699 245.512 165.56C245.297 165.422 245.112 165.241 244.969 165.029C244.826 164.817 244.728 164.578 244.68 164.326C244.633 164.075 244.637 163.816 244.693 163.566C244.749 163.317 244.855 163.081 245.005 162.874C245.155 162.666 245.346 162.492 245.566 162.361C245.786 162.23 246.03 162.145 246.284 162.112C246.537 162.078 246.795 162.097 247.042 162.167C249.072 162.687 250.902 163.802 252.296 165.367C253.689 166.933 254.585 168.879 254.866 170.957C255.307 173.642 254.729 176.395 253.246 178.675C253.069 178.93 252.834 179.138 252.56 179.282C252.287 179.427 251.982 179.503 251.673 179.505Z" fill="#121214"/>
<path d="M233.891 184.59C233.525 184.587 233.167 184.48 232.859 184.281C232.652 184.146 232.474 183.971 232.335 183.766C232.197 183.561 232.1 183.331 232.051 183.089C232.001 182.847 232 182.597 232.048 182.355C232.096 182.112 232.191 181.882 232.328 181.676C233.288 180.177 233.659 178.376 233.37 176.62C233.206 175.289 232.65 174.037 231.772 173.023C230.894 172.009 229.734 171.28 228.44 170.928C228.151 170.928 227.865 170.863 227.604 170.738C227.344 170.613 227.114 170.431 226.933 170.205C226.753 169.98 226.625 169.716 226.559 169.435C226.494 169.153 226.493 168.86 226.556 168.578C226.619 168.296 226.744 168.031 226.923 167.804C227.102 167.577 227.33 167.393 227.589 167.265C227.849 167.138 228.134 167.071 228.423 167.068C228.712 167.066 228.998 167.129 229.26 167.252C231.292 167.769 233.124 168.882 234.518 170.448C235.913 172.015 236.807 173.963 237.085 176.041C237.527 178.726 236.948 181.48 235.464 183.76C235.287 184.014 235.052 184.223 234.779 184.367C234.505 184.511 234.201 184.588 233.891 184.59Z" fill="#121214"/>
<path d="M400.857 275.574L405.604 273.828" stroke="#121214" stroke-width="0.473303" stroke-linecap="round" stroke-linejoin="round"/>
<path d="M307.142 310.193L396.544 277.176" stroke="#121214" stroke-width="0.473303" stroke-linecap="round" stroke-linejoin="round"/>
<path d="M309.65 295.267L394.971 263.755" stroke="#121214" stroke-width="0.473303" stroke-linecap="round" stroke-linejoin="round"/>
<path d="M296.509 300.12L303.977 297.361" stroke="#121214" stroke-width="0.473303" stroke-linecap="round" stroke-linejoin="round"/>
<path d="M285.876 290.047L384.348 253.682" stroke="#121214" stroke-width="0.473303" stroke-linecap="round" stroke-linejoin="round"/>
<path d="M275.254 279.984L373.716 243.619" stroke="#121214" stroke-width="0.473303" stroke-linecap="round" stroke-linejoin="round"/>
<path d="M358.954 235.07L363.083 233.546" stroke="#121214" stroke-width="0.473303" stroke-linecap="round" stroke-linejoin="round"/>
<path d="M264.621 269.911L353.049 237.251" stroke="#121214" stroke-width="0.473303" stroke-linecap="round" stroke-linejoin="round"/>
<path d="M253.989 259.838L352.461 223.473" stroke="#121214" stroke-width="0.473303" stroke-linecap="round" stroke-linejoin="round"/>
<path d="M243.356 249.774L341.828 213.409" stroke="#121214" stroke-width="0.473303" stroke-linecap="round" stroke-linejoin="round"/>
<path d="M232.733 239.702L331.195 203.337" stroke="#121214" stroke-width="0.473303" stroke-linecap="round" stroke-linejoin="round"/>
<path d="M222.101 229.629L320.563 193.264" stroke="#121214" stroke-width="0.473303" stroke-linecap="round" stroke-linejoin="round"/>
<path d="M306.447 184.484L309.94 183.191" stroke="#121214" stroke-width="0.473303" stroke-linecap="round" stroke-linejoin="round"/>
<path d="M211.468 219.555L303.417 185.603" stroke="#121214" stroke-width="0.473303" stroke-linecap="round" stroke-linejoin="round"/>
<path d="M230.234 198.628L299.307 173.127" stroke="#121214" stroke-width="0.473303" stroke-linecap="round" stroke-linejoin="round"/>
<path d="M200.845 209.492L219.862 202.468" stroke="#121214" stroke-width="0.473303" stroke-linecap="round" stroke-linejoin="round"/>
<g style="mix-blend-mode:multiply">
<path d="M235 235.533C244.967 236.836 244.089 219.778 241.561 214.056C239.717 216.17 238.343 218.651 237.53 221.336C236.716 224.02 236.482 226.847 236.843 229.629C236.948 230.928 237.402 232.174 238.156 233.237C238.537 233.763 239.066 234.165 239.676 234.391C240.285 234.618 240.948 234.659 241.581 234.511C242.488 234.126 243.256 233.473 243.781 232.639C245.614 230.208 246.829 227.197 248.759 224.968C251.432 226.773 260.926 229.86 259.556 223.222C258.803 219.556 260.627 219.971 262.585 221.765C263.396 222.498 264.669 222.103 265.673 221.659L275.321 217.414C276.549 216.788 277.879 216.386 279.248 216.227C283.879 215.995 286.909 220.299 291.453 217.259C293.383 215.986 293.827 212.532 296.278 211.219C298.024 210.255 300.079 210.197 302.067 209.927C308.898 209.02 312.39 205.411 318.701 202.15" stroke="white" stroke-width="0.946608" stroke-linecap="round" stroke-linejoin="round"/>
</g>
<g style="mix-blend-mode:multiply">
<path d="M242.739 246.195C246.473 246.831 249.666 243.426 252.966 242.335C257.182 240.927 259.016 239.209 263.068 237.463C268.423 235.167 274.714 234.105 273.594 226.01C272.832 228.905 272.745 232.089 272.157 235.118C276.499 237.27 277.666 233.575 278.11 230.294C279.567 230.257 281.007 229.967 282.365 229.435C282.365 230.043 282.558 230.728 282.548 231.307C284.632 232.147 285.443 231.577 285.877 229.734C288.183 229.3 289.003 227.139 290.952 226.608C291.444 232.021 292.824 236.759 292.505 242.297C288.81 243.262 288.231 236.884 289.167 234.24C290.132 231.442 292.911 229.947 293.933 227.023C294.146 227.38 293.982 227.795 294.097 228.181C298.748 225.402 304.711 226.155 309.323 222.903C310.77 221.881 311.802 219.835 313.336 219.121C316.675 217.577 317.668 219.391 320.158 215.754" stroke="white" stroke-width="0.946608" stroke-linecap="round" stroke-linejoin="round"/>
</g>
<g style="mix-blend-mode:multiply">
<path d="M276.354 277.987C283.059 276.057 286.002 259.394 284.072 253.277C281.815 245.877 278.708 253.991 277.984 257.966C277.405 261.15 276.479 269.544 279.451 271.966C286.041 277.311 290.064 266.322 290.874 261.353C291.164 264.459 289.292 268.29 290.054 271.638C295.39 272.265 298.034 267.827 297.696 263.244C298.358 263.878 298.807 264.703 298.98 265.603C299.153 266.504 299.041 267.436 298.661 268.271C303.755 267.914 302.916 259.317 303.485 255.853C303.195 258.275 303.417 261.111 305.048 263.07C306.408 264.691 309.004 265.405 310.712 264.151C312.419 262.896 312.082 259.597 310.007 259.162V280.051C310.073 280.655 309.951 281.265 309.66 281.798C308.975 282.763 307.296 282.56 306.514 281.634C305.826 280.623 305.503 279.408 305.598 278.189C305.501 271.348 307.614 261.98 312.911 257.31C313.183 257.976 313.273 258.702 313.172 259.413C313.679 259.216 314.137 258.911 314.515 258.519C314.893 258.128 315.182 257.66 315.362 257.146C315.709 258.68 316.616 260.61 318.17 260.34C318.685 260.204 319.157 259.939 319.54 259.568C322.087 257.464 324.846 256.075 326.554 253.084C326.795 253.837 327.046 254.589 327.297 255.351C327.702 253.894 329.092 252.939 330.452 252.283C332.528 251.308 334.772 250.741 337.061 250.614C338.991 250.518 341.094 250.72 342.85 249.89C343.628 249.475 344.373 249.001 345.079 248.472C347.079 247.155 349.394 246.395 351.785 246.272" stroke="white" stroke-width="0.946608" stroke-linecap="round" stroke-linejoin="round"/>
</g>
<path d="M196.86 94.7532C196.86 94.7532 212.25 75.3599 217.46 68.4227C222.67 61.4855 226.442 56.1499 226.442 56.1499C226.442 56.1499 229.221 58.3401 228.372 60.8294C227.523 63.3187 209.22 88.3177 205.148 94.6664C201.077 101.015 201.646 109.052 201.945 111.821C202.244 114.59 194.168 105.54 196.86 94.7532Z" fill="white" stroke="#121214" stroke-width="1.06056" stroke-linecap="round" stroke-linejoin="round"/>
<path d="M226.442 56.15C226.442 56.15 236.023 42.8255 243.134 31.7299C250.245 20.6342 260.627 3.97135 263.097 1.75221C265.567 -0.466922 266.165 5.32213 265.364 9.2008C264.563 13.0795 256.063 23.905 250.322 32.7815C244.581 41.6581 241.031 48.0453 236.091 53.873C231.151 59.7006 231.44 59.9804 228.372 60.8295C225.304 61.6786 225.902 58.6393 226.442 56.15Z" fill="#121214" stroke="#121214" stroke-width="1.06056" stroke-linecap="round" stroke-linejoin="round"/>
<path d="M193.551 96.7022C194.612 89.5142 197.014 76.238 202.504 72.0602C207.994 67.8824 224.609 71.0953 225.989 71.3462C227.368 71.5971 249.232 76.4406 255.899 80.5411C262.566 84.6417 267.043 96.49 268.75 103.35C270.458 110.21 274.125 121.827 274.674 122.647C274.674 122.647 280.222 125.088 283.262 124.798C286.301 124.509 290.344 110.384 298.853 102.038C307.363 93.6919 311.782 92.5534 321.18 93.3542C330.577 94.1551 366.277 103.832 369.895 107.393C373.513 110.953 375.771 118.971 374.989 124.76C374.208 130.549 375.346 136.917 375.346 138.017C375.346 139.117 378.694 142.696 377.884 145.736C377.073 148.775 376.571 155.384 374.092 156.262C371.612 157.14 353.367 156.677 339.821 154.834C326.274 152.991 307.431 144.819 294.955 139.107C282.48 133.395 276.392 130.935 267.274 131.002C258.156 131.07 240.48 131.456 224.155 127.693C207.83 123.93 196.735 117.08 193.666 114.079C190.598 111.078 192.499 103.9 193.551 96.7022ZM291.308 130.587C295.776 137.197 313.78 143.709 323.467 146.401C333.154 149.093 356.387 153.917 362.446 150.569C368.505 147.221 371.689 127.297 371.13 120.389C370.57 113.481 367.743 109.641 367.743 109.641C355.808 102.26 318.459 94.4928 310.74 97.5899C303.022 100.687 295.641 110.673 292.929 118.701C290.218 126.728 291.308 130.587 291.308 130.587ZM213.32 119.231C225.246 126.333 244.05 128.417 251.509 128.648C258.967 128.88 266.126 124.962 266.348 116.395C266.57 107.827 262.054 93.4893 260.366 89.3791C258.677 85.2689 253.139 82.7989 253.139 82.7989C245.662 79.2579 214.661 71.4523 209.413 72.3207C204.164 73.189 199.571 81.1586 198.5 92.8043C197.429 104.45 201.395 112.13 213.32 119.231Z" fill="#121214" stroke="#121214" stroke-width="1.06056" stroke-linecap="round" stroke-linejoin="round"/>
<path d="M374.516 137.776C374.516 137.776 377.584 142.455 379.775 139.126C381.965 135.798 410.215 104.112 410.215 104.112C410.215 104.112 411.315 103.823 411.055 106.042C410.794 108.261 381.222 147.964 380.122 149.904C379.022 151.843 374.333 152.432 373.233 151.611C372.133 150.791 374.516 137.776 374.516 137.776Z" fill="white" stroke="#121214" stroke-width="1.06056" stroke-linecap="round" stroke-linejoin="round"/>
<path d="M408.286 105.222C409.9 102.348 411.356 99.3879 412.647 96.355C415.638 89.7073 417.471 76.7109 417.953 63.1645C418.436 49.6181 418.918 41.6099 421.417 44.0799C423.916 46.5499 421.774 59.8358 421.311 70.3236C420.848 80.8114 417.587 91.3475 416.796 96.8857C416.197 101.063 412.994 107.682 410.785 107.692C408.575 107.702 408.855 107.152 408.286 105.222Z" fill="#121214" stroke="#121214" stroke-width="1.06056" stroke-linecap="round" stroke-linejoin="round"/>
<path d="M225.989 278.411L238.136 292.16L220.074 288.088L91.5571 209.463L97.4813 199.786L225.989 278.411Z" fill="white" stroke="#121214" stroke-width="1.197" stroke-linecap="round" stroke-linejoin="round"/>
<g style="mix-blend-mode:multiply" opacity="0.5">
<path d="M225.989 278.411L238.136 292.16L220.074 288.088L91.5571 209.463L97.4813 199.786L225.989 278.411Z" fill="white"/>
<path d="M225.989 278.411L238.136 292.16L220.074 288.088L91.5571 209.463L97.4813 199.786L225.989 278.411Z" stroke="#121214" stroke-width="1.197" stroke-linecap="round" stroke-linejoin="round"/>
</g>
<path d="M96.136 201.989L92.9082 207.265L221.422 285.895L224.65 280.619L96.136 201.989Z" stroke="#121214" stroke-width="0.598498" stroke-linecap="round" stroke-linejoin="round"/>
<path d="M226.018 278.44L220.104 288.098L238.136 292.16L226.018 278.44Z" fill="white" stroke="#121214" stroke-width="1.197" stroke-linecap="round" stroke-linejoin="round"/>
<path d="M229.115 290.124L238.136 292.16L232.077 285.3L229.115 290.124Z" fill="white" stroke="#121214" stroke-width="1.197" stroke-linecap="round" stroke-linejoin="round"/>
<path d="M80.1334 195.821C79.7436 196.455 79.4829 197.161 79.366 197.896C79.2492 198.632 79.2785 199.383 79.4524 200.107C79.6263 200.831 79.9412 201.514 80.3793 202.116C80.8173 202.718 81.3698 203.228 82.0052 203.617L91.5571 209.464L97.4812 199.815L87.9293 193.968C86.6493 193.182 85.1098 192.936 83.6484 193.283C82.1869 193.63 80.9228 194.543 80.1334 195.821Z" fill="white" stroke="#121214" stroke-width="1.197" stroke-linecap="round" stroke-linejoin="round"/>
<path d="M80.1334 195.821C79.7436 196.455 79.4829 197.161 79.366 197.896C79.2492 198.632 79.2785 199.383 79.4524 200.107C79.6263 200.831 79.9412 201.514 80.3793 202.116C80.8173 202.718 81.3698 203.228 82.0052 203.617L86.5785 206.415L92.5026 196.766L87.9293 193.968C86.6493 193.182 85.1098 192.936 83.6484 193.283C82.1869 193.63 80.9228 194.543 80.1334 195.821Z" fill="#121214" stroke="#121214" stroke-width="1.197" stroke-linecap="round" stroke-linejoin="round"/>
<path d="M339.473 149.75L336.086 147.366C335.563 146.999 334.963 146.754 334.331 146.651C333.7 146.547 333.053 146.587 332.439 146.768C328.86 147.81 322.106 150.463 320.176 152.557C317.668 155.143 316.876 159.822 318.082 162.022C319.289 164.222 324.238 167.03 324.238 167.03L344.973 154.41L339.473 149.75Z" fill="white" stroke="#121214" stroke-width="0.789417" stroke-miterlimit="10"/>
<g style="mix-blend-mode:multiply" opacity="0.5">
<path d="M339.473 149.75L336.086 147.366C335.563 146.999 334.963 146.754 334.331 146.651C333.7 146.547 333.053 146.587 332.439 146.768C328.86 147.81 322.106 150.463 320.176 152.557C317.668 155.143 316.876 159.822 318.082 162.022C319.289 164.222 324.238 167.03 324.238 167.03L344.973 154.41L339.473 149.75Z" fill="white"/>
<path d="M339.473 149.75L336.086 147.366C335.563 146.999 334.963 146.754 334.331 146.651C333.7 146.547 333.053 146.587 332.439 146.768C328.86 147.81 322.106 150.463 320.176 152.557C317.668 155.143 316.876 159.822 318.082 162.022C319.289 164.222 324.238 167.03 324.238 167.03L344.973 154.41L339.473 149.75Z" stroke="#121214" stroke-width="0.789417" stroke-miterlimit="10"/>
</g>
<path d="M341.586 148.775L325.184 156.272C325.184 156.272 319.636 159.408 321.392 169.008L417.442 239.731C417.442 239.731 420.781 242.162 426.811 240.107C432.841 238.052 439.016 230.941 440.319 224.93C441.621 218.919 437.424 217.028 436.643 216.362C435.861 215.696 344.828 149.489 344.828 149.489C343.866 148.875 342.718 148.622 341.586 148.775Z" fill="white" stroke="#121214" stroke-width="0.789417" stroke-miterlimit="10"/>
<g style="mix-blend-mode:multiply" opacity="0.5">
<path d="M341.586 148.775L325.184 156.272C325.184 156.272 319.636 159.408 321.392 169.008L417.442 239.731C417.442 239.731 420.781 242.162 426.811 240.107C432.841 238.052 439.016 230.941 440.319 224.93C441.621 218.919 437.424 217.028 436.643 216.362C435.861 215.696 344.828 149.489 344.828 149.489C343.866 148.875 342.718 148.622 341.586 148.775Z" fill="white"/>
<path d="M341.586 148.775L325.184 156.272C325.184 156.272 319.636 159.408 321.392 169.008L417.442 239.731C417.442 239.731 420.781 242.162 426.811 240.107C432.841 238.052 439.016 230.941 440.319 224.93C441.621 218.919 437.424 217.028 436.643 216.362C435.861 215.696 344.828 149.489 344.828 149.489C343.866 148.875 342.718 148.622 341.586 148.775Z" stroke="#121214" stroke-width="0.789417" stroke-miterlimit="10"/>
</g>
<path d="M433.855 235.119C427.805 240.763 420.482 242.751 417.452 239.547C414.423 236.344 416.922 229.156 422.971 223.502C429.021 217.848 436.344 215.87 439.373 219.073C442.403 222.277 439.894 229.465 433.855 235.119Z" fill="white" stroke="#121214" stroke-width="0.789417" stroke-miterlimit="10"/>
<g style="mix-blend-mode:multiply">
<path d="M433.855 235.119C427.805 240.763 420.482 242.751 417.452 239.547C414.423 236.344 416.922 229.156 422.971 223.502C429.021 217.848 436.344 215.87 439.373 219.073C442.403 222.277 439.894 229.465 433.855 235.119Z" fill="white"/>
<path d="M433.855 235.119C427.805 240.763 420.482 242.751 417.452 239.547C414.423 236.344 416.922 229.156 422.971 223.502C429.021 217.848 436.344 215.87 439.373 219.073C442.403 222.277 439.894 229.465 433.855 235.119Z" stroke="#121214" stroke-width="0.789417" stroke-miterlimit="10"/>
</g>
<path d="M344.819 149.489C343.859 148.877 342.714 148.624 341.586 148.775L325.184 156.272C325.184 156.272 319.636 159.408 321.392 169.008L387.812 217.916C387.339 215.658 387.426 212.358 389.964 208.441C392.318 204.784 402.893 198.889 408.604 195.898C381.57 176.225 344.819 149.489 344.819 149.489Z" fill="#121214" stroke="#121214" stroke-width="1.06056" stroke-linecap="round" stroke-linejoin="round"/>
<path d="M421.031 223.328L385.95 197.905C385.425 197.525 385.004 197.019 384.726 196.433C384.448 195.848 384.322 195.202 384.359 194.555C384.397 193.908 384.597 193.281 384.94 192.731C385.284 192.182 385.761 191.728 386.326 191.411L391.758 188.449C392.396 188.104 393.117 187.945 393.841 187.991C394.564 188.038 395.26 188.286 395.849 188.71L432.937 215.571" fill="white"/>
<path d="M421.031 223.328L385.95 197.905C385.425 197.525 385.004 197.019 384.726 196.433C384.448 195.848 384.322 195.202 384.359 194.555C384.397 193.908 384.597 193.281 384.94 192.731C385.284 192.182 385.761 191.728 386.326 191.411L391.758 188.449C392.396 188.104 393.117 187.945 393.841 187.991C394.564 188.038 395.26 188.286 395.849 188.71L432.937 215.571" stroke="#121214" stroke-width="0.789417" stroke-miterlimit="10"/>
<g style="mix-blend-mode:multiply" opacity="0.5">
<path d="M421.031 223.328L385.95 197.905C385.425 197.525 385.004 197.019 384.726 196.433C384.448 195.848 384.322 195.202 384.359 194.555C384.397 193.908 384.597 193.281 384.94 192.731C385.284 192.182 385.761 191.728 386.326 191.411L391.758 188.449C392.396 188.104 393.117 187.945 393.841 187.991C394.564 188.038 395.26 188.286 395.849 188.71L432.937 215.571" fill="white"/>
<path d="M421.031 223.328L385.95 197.905C385.425 197.525 385.004 197.019 384.726 196.433C384.448 195.848 384.322 195.202 384.359 194.555C384.397 193.908 384.597 193.281 384.94 192.731C385.284 192.182 385.761 191.728 386.326 191.411L391.758 188.449C392.396 188.104 393.117 187.945 393.841 187.991C394.564 188.038 395.26 188.286 395.849 188.71L432.937 215.571" stroke="#121214" stroke-width="0.789417" stroke-miterlimit="10"/>
</g>
</svg>
