<svg width="501" height="367" viewBox="0 0 501 367" fill="none" xmlns="http://www.w3.org/2000/svg">
<path d="M244.113 128.476C244.113 128.476 243.356 122.468 242.808 116.202C242.26 109.937 245.441 108.263 247.561 108.077C248.588 107.956 249.625 107.941 250.654 108.034C250.654 108.034 250.928 97.9611 258.375 95.6746C265.823 93.388 271.979 98.9239 274.387 96.6126C276.796 94.3014 268.091 95.29 271.6 91.9515C275.109 88.6129 285.955 87.4142 288.111 98.4549C290.267 109.496 282.916 115.271 279.226 116.525C275.535 117.779 269.741 111.507 264.809 112.177C259.877 112.847 261.075 118.351 258.206 120.941C255.337 123.531 252.87 122.543 253.137 125.586C253.403 128.628 252.133 130.352 248.369 130.908C244.606 131.464 244.113 128.476 244.113 128.476Z" fill="#121214" stroke="#121214" stroke-width="0.833333" stroke-linecap="round" stroke-linejoin="round"/>
<path d="M277.521 107.477C277.521 107.477 281.347 108.823 285.884 105.349C290.42 101.875 286.695 95.2066 285.833 94.9981" stroke="white" stroke-width="0.833333" stroke-linecap="round" stroke-linejoin="round"/>
<path d="M255.902 107.688C255.902 107.688 256.967 100.317 262.919 100.08C268.871 99.8431 268.495 105.19 273.731 106.412" stroke="white" stroke-width="0.833333" stroke-linecap="round" stroke-linejoin="round"/>
<path d="M253.203 112.489C253.203 112.489 249.468 109.409 246.489 110.476C243.509 111.543 245.326 116.732 245.759 118.374C246.191 120.017 244.334 124.937 244.334 124.937" stroke="white" stroke-width="0.833333" stroke-linecap="round" stroke-linejoin="round"/>
<path d="M175.157 138.494L186.305 167.676L199.91 165.918L189.3 136.417L175.157 138.494Z" fill="#121214" stroke="#121214" stroke-width="0.833333" stroke-linecap="round" stroke-linejoin="round"/>
<path d="M202.521 192.463L198.988 194.736C198.988 194.736 193.179 181.154 190.766 176.017C188.353 170.88 187.537 168.692 187.537 168.692L187.629 168.684C188.555 168.045 189.248 167.132 189.607 166.079C189.967 165.025 189.972 163.887 189.624 162.832L188.721 160.039C188.843 160.29 189.024 160.51 189.248 160.681C189.472 160.851 189.734 160.968 190.013 161.02C190.292 161.073 190.579 161.061 190.852 160.985C191.126 160.909 191.378 160.771 191.587 160.583C192.486 159.891 190.939 153.827 189.595 151.674C188.251 149.52 184.602 151.509 183.519 152.205C182.723 152.737 182.002 153.369 181.373 154.085L180.229 150.779C180.229 150.779 184.469 150.124 185.329 150.048C186.189 149.973 189.062 146.906 187.616 146.749C186.17 146.591 178.202 147.288 176.354 149.142C174.506 150.995 178.51 157.412 179.206 158.759C179.901 160.106 184.015 174.121 185.504 177.931C186.992 181.74 192.352 210.259 194.319 212.664C196.285 215.07 207.907 202.131 207.907 202.131L202.521 192.463Z" fill="white" stroke="#121214" stroke-width="0.833333" stroke-linecap="round" stroke-linejoin="round"/>
<path d="M182.524 156.016C182.524 156.016 186.229 152.286 189.902 152.805" stroke="#121214" stroke-width="0.833333" stroke-linecap="round" stroke-linejoin="round"/>
<path d="M184.018 159.235C184.803 158.297 185.768 157.52 186.858 156.95C187.948 156.379 189.142 156.025 190.37 155.909" stroke="#121214" stroke-width="0.833333" stroke-linecap="round" stroke-linejoin="round"/>
<path d="M229.684 153.821C229.684 153.821 224.843 159.229 222.928 163.62C221.014 168.011 201.386 192.562 201.386 192.562L209.48 212.984L223.716 198.772C223.716 198.772 230.827 181.811 232.204 171.268C233.58 160.724 234.952 153.167 229.684 153.821Z" fill="white" stroke="#121214" stroke-width="0.833333" stroke-linecap="round" stroke-linejoin="round"/>
<path d="M277.381 155.257C277.381 155.257 260.498 155.326 250.942 154.765C241.385 154.205 230.763 152.557 229.684 153.821C228.605 155.085 224.387 192.173 218.441 207.397C210.57 227.558 204.886 238.377 204.886 238.377C211.297 235.293 218.446 234.012 225.541 234.674C237.52 235.726 256.964 246.446 256.964 246.446C256.964 246.446 264.158 227.003 271.95 207.394C279.742 187.785 282.249 159.27 282.11 157.682C281.971 156.093 278.77 154.897 277.381 155.257Z" fill="white" stroke="#121214" stroke-width="0.833333" stroke-linecap="round" stroke-linejoin="round"/>
<path d="M270.148 155.242C264.369 155.214 256.457 155.089 250.941 154.765C250.129 154.723 249.326 154.657 248.513 154.603C247.654 157.812 247.233 161.117 247.259 164.432C247.38 171.234 252.039 178.275 255.112 178.006C258.184 177.737 266.524 164.393 268.34 160.726C269.248 159.008 269.859 157.155 270.148 155.242Z" fill="white" stroke="#121214" stroke-width="0.833333" stroke-linecap="round" stroke-linejoin="round"/>
<path d="M253.335 141.464C253.335 141.464 252.02 153.501 250.555 158.535C249.089 163.568 251.961 171.969 254.343 171.999C256.726 172.029 265.117 159.134 265.117 159.134L267.241 145.391C267.241 145.391 254.92 143.199 253.335 141.464Z" fill="white" stroke="#121214" stroke-width="0.833333" stroke-linecap="round" stroke-linejoin="round"/>
<path d="M279.568 155.565C280.843 155.649 282.08 156.025 283.181 156.662C284.281 157.299 285.215 158.179 285.907 159.234C288.543 162.955 314.542 198.149 314.542 198.149L299.511 203.416L276.537 186.543C276.537 186.543 270.861 180.557 275.544 168.6" fill="white"/>
<path d="M279.568 155.565C280.843 155.649 282.08 156.025 283.181 156.662C284.281 157.299 285.215 158.179 285.907 159.234C288.543 162.955 314.542 198.149 314.542 198.149L299.511 203.416L276.537 186.543C276.537 186.543 270.861 180.557 275.544 168.6" stroke="#121214" stroke-width="0.833333" stroke-linecap="round" stroke-linejoin="round"/>
<path d="M238.261 194.684C238.261 194.684 233.277 199.911 233.042 201.056C232.807 202.2 236.378 206.441 237.259 206.602C238.139 206.764 238.208 204.249 237.812 203.148C237.415 202.047 236.718 200.416 236.718 200.416L239.519 196.515C239.519 196.515 240.592 195.047 238.261 194.684Z" fill="white" stroke="#121214" stroke-width="0.833333" stroke-linecap="round" stroke-linejoin="round"/>
<path d="M307.775 189.726C304.224 188.782 300.517 188.531 296.863 188.989C290.915 189.793 278.667 193.987 270.722 194.943C262.777 195.9 263.09 196.179 258.727 195.425C254.363 194.672 244.962 188.75 242.967 188.924C240.972 189.099 235.855 199.402 236.812 200.442C237.77 201.482 245.331 206.18 247.355 206.332C249.378 206.485 253.417 203.531 253.417 203.531C253.417 203.531 275.021 204.741 285.083 204.996C295.144 205.251 307.497 205.567 312.055 202.068C316.612 198.57 314.566 191.948 307.775 189.726Z" fill="white" stroke="#121214" stroke-width="0.833333" stroke-linecap="round" stroke-linejoin="round"/>
<path d="M243.214 192.275L238.537 201.143" stroke="#121214" stroke-width="0.833333" stroke-linecap="round" stroke-linejoin="round"/>
<path d="M247.461 195.003L241.936 203.945" stroke="#121214" stroke-width="0.833333" stroke-linecap="round" stroke-linejoin="round"/>
<path d="M250.634 198.393L245.786 205.3" stroke="#121214" stroke-width="0.833333" stroke-linecap="round" stroke-linejoin="round"/>
<path d="M253.368 203.501L252.624 201.602L249.928 203.53" stroke="#121214" stroke-width="0.833333" stroke-linecap="round" stroke-linejoin="round"/>
<path d="M280.386 124.371C280.386 124.371 282.605 122.542 283.461 126.907C284.316 131.272 282.964 134.433 281.81 135.238C280.656 136.043 279.178 134.991 279.178 134.991L280.386 124.371Z" fill="white" stroke="#121214" stroke-width="0.833333" stroke-linecap="round" stroke-linejoin="round"/>
<path d="M246.478 128.042C246.478 128.042 242.279 123.493 240.524 127.859C238.769 132.225 240.875 137.411 243.9 139.247C246.926 141.083 249.483 137.828 249.483 137.828C249.483 137.828 256.692 149.584 261.926 149.592C267.159 149.6 276.545 145.043 279.425 137.547C282.304 130.051 280.841 118.484 280.926 114.037C281.01 109.59 275.571 104.457 266.365 105.263C263.765 105.428 261.234 106.162 258.956 107.412C256.679 108.663 254.714 110.397 253.204 112.489C253.569 112.636 253.895 112.865 254.155 113.157C254.416 113.448 254.604 113.795 254.706 114.171C254.808 114.546 254.821 114.939 254.744 115.321C254.666 115.702 254.501 116.061 254.26 116.37C252.592 119.094 250.384 120.922 249.815 122.607C249.246 124.291 250.099 125.852 249.269 127.332C248.44 128.813 246.478 128.042 246.478 128.042Z" fill="white" stroke="#121214" stroke-width="0.833333" stroke-linecap="round" stroke-linejoin="round"/>
<path d="M267.211 118.768C267.118 120.082 266.537 121.098 265.923 121.084C265.31 121.069 264.864 119.939 264.957 118.625C265.05 117.311 265.631 116.295 266.245 116.309C266.858 116.324 267.303 117.443 267.211 118.768Z" fill="#121214"/>
<path d="M276.866 120.456C276.774 121.781 276.192 122.785 275.578 122.771C274.965 122.756 274.52 121.637 274.612 120.312C274.704 118.987 275.287 117.982 275.9 117.997C276.514 118.011 276.962 119.175 276.866 120.456Z" fill="#121214"/>
<path d="M262.069 113.734C262.069 113.734 264.72 110.096 268.688 111.611" stroke="#121214" stroke-width="0.833333" stroke-linecap="round" stroke-linejoin="round"/>
<path d="M274.646 113.837C274.646 113.837 278.834 111.927 280.212 117.642" stroke="#121214" stroke-width="0.833333" stroke-linecap="round" stroke-linejoin="round"/>
<path d="M273.13 118.421C273.13 118.421 271.824 121.453 272.242 122.268C272.66 123.083 277.083 123.729 275.8 125.045C274.517 126.361 271.174 128.027 270.071 127.431" stroke="#121214" stroke-width="0.833333" stroke-linecap="round" stroke-linejoin="round"/>
<path d="M260.944 128.741C260.944 128.741 262.517 132.725 268.129 133.085" stroke="#121214" stroke-width="0.833333" stroke-linecap="round" stroke-linejoin="round"/>
<path d="M206.762 236.316C206.762 236.316 200.977 243.079 192.702 253.204C184.427 263.329 163.85 296.842 167.146 307.181C170.442 317.52 230.345 328.278 230.345 328.278L236.288 323.455C236.288 323.455 198.86 300.887 195.977 295.258C193.093 289.628 221.877 267.933 221.877 267.933L254.007 243.549C254.007 243.549 236.572 219.606 206.762 236.316Z" fill="#121214" stroke="#121214" stroke-width="0.833333" stroke-linecap="round" stroke-linejoin="round"/>
<path d="M248.094 217.031C248.094 217.031 256.688 228.769 257.192 243.645C257.697 258.52 252.922 272.211 238.26 273.108C223.598 274.004 222.886 252.13 226.68 240.83C230.474 229.53 229.996 215.095 248.094 217.031Z" fill="#121214" stroke="#121214" stroke-width="0.833333" stroke-linecap="round" stroke-linejoin="round"/>
<path d="M227.348 226.284C227.348 226.284 222.345 264.701 219.035 272.428C215.726 280.154 210.17 298.648 210.17 298.648L219.076 300.22C219.076 300.22 229.869 282.437 242.968 263.669C256.066 244.901 251.653 221.795 248.047 217.024C244.442 212.253 232.267 213.715 227.348 226.284Z" fill="#121214" stroke="#121214" stroke-width="0.833333" stroke-linecap="round" stroke-linejoin="round"/>
<path d="M251.57 231.67C251.57 231.67 247.392 259.047 239.465 270.902" stroke="white" stroke-width="0.833333" stroke-linecap="round" stroke-linejoin="round"/>
<path d="M230.34 328.222C230.34 328.222 232.031 334.341 230.111 338.812C228.192 343.284 223.357 352.722 227.346 352.759C231.335 352.796 236.362 346.486 239.907 341.441C243.451 336.396 243.469 332.114 245.942 328.424C248.414 324.733 236.329 323.394 236.329 323.394L231.383 326.541L230.34 328.222Z" fill="white" stroke="#121214" stroke-width="0.833333" stroke-linecap="round" stroke-linejoin="round"/>
<path d="M245.895 328.428C246.731 327.151 245.87 326.159 244.372 325.404C242.138 331.544 239.271 337.445 235.816 343.014C232.14 348.661 228.451 350.471 225.772 350.876C225.79 352.009 226.202 352.757 227.3 352.763C231.29 352.811 236.316 346.49 239.861 341.445C243.405 336.4 243.427 332.163 245.895 328.428Z" fill="white" stroke="#121214" stroke-width="0.833333" stroke-linecap="round" stroke-linejoin="round"/>
<path d="M210.217 298.656C205.279 298.453 200.435 297.279 195.972 295.201C189.316 291.878 188.123 291.982 188.735 298.968C189.346 305.954 198.354 308.698 203.407 311.787C208.46 314.876 211.392 316.572 214.911 315.867C218.431 315.161 219.123 300.227 219.123 300.227C219.123 300.227 216.811 296.512 210.217 298.656Z" fill="white" stroke="#121214" stroke-width="0.833333" stroke-linecap="round" stroke-linejoin="round"/>
<path d="M188.735 298.968C189.347 305.966 198.354 308.698 203.407 311.787C208.46 314.876 211.342 316.531 214.82 315.875C206.078 311.417 204.465 303.156 195.972 295.201C189.316 291.878 188.123 291.982 188.735 298.968Z" fill="white" stroke="#121214" stroke-width="0.833333" stroke-linecap="round" stroke-linejoin="round"/>
<path d="M208.799 307.398C206.425 303.759 203.759 300.313 200.827 297.093C199.157 296.621 197.533 296.003 195.976 295.246C189.32 291.923 188.127 292.027 188.739 299.013C189.35 305.999 198.358 308.743 203.411 311.832C208.464 314.921 211.396 316.617 214.915 315.912C215.779 315.745 216.463 314.72 216.995 313.277C215.262 312.977 213.623 312.291 212.202 311.272C210.782 310.253 209.618 308.928 208.799 307.398Z" stroke="#121214" stroke-width="0.833333" stroke-linecap="round" stroke-linejoin="round"/>
<path d="M79.3324 186.163C79.2831 185.6 79.337 185.028 79.346 184.47" stroke="#121214" stroke-width="0.833333" stroke-miterlimit="10"/>
<path d="M79.4433 181.09C81.0284 140.901 97.4527 102.612 125.643 73.3894C153.833 44.1665 191.858 26.0116 232.601 22.3217C273.344 18.6319 314.015 29.6599 347.002 53.3424C379.989 77.0249 403.033 111.739 411.821 150.989" stroke="#121214" stroke-width="0.833333" stroke-miterlimit="10" stroke-dasharray="2.49 2.49"/>
<path d="M412.208 152.646C412.325 153.193 412.444 153.761 412.55 154.308" stroke="#121214" stroke-width="0.833333" stroke-miterlimit="10"/>
<path d="M92.0155 69.9557L81.1585 116.72L140.678 120.324L147.095 77.4676C147.095 77.4676 111.259 78.2524 92.0155 69.9557Z" fill="white" stroke="#121214" stroke-width="0.833333" stroke-linecap="round" stroke-linejoin="round"/>
<path d="M150.581 35.4582C150.581 35.4582 178.707 35.9383 197.699 20.7651C197.699 20.7651 224.283 37.8211 233.929 38.7484C233.929 38.7484 220.486 55.8205 205.47 61.7894C205.436 61.7924 165.999 48.2113 150.581 35.4582Z" fill="white" stroke="#121214" stroke-width="0.833333" stroke-linecap="round" stroke-linejoin="round"/>
<path d="M150.581 35.4582C154.406 32.0488 158.894 29.4386 163.773 27.7868C165.013 36.0951 169.068 43.7411 175.283 49.4883C175.283 49.4883 157.252 41.8574 150.581 35.4582Z" fill="#121214" stroke="#121214" stroke-width="0.833333" stroke-linecap="round" stroke-linejoin="round"/>
<path d="M262.315 44.9738C262.315 44.9738 261.584 47.9785 267.936 52.3165C270.827 54.3344 276.976 54.6366 276.976 54.6366L291.197 33.6361C291.197 33.6361 265.352 39.417 262.315 44.9738Z" fill="#121214" stroke="#121214" stroke-width="0.833333" stroke-linecap="round" stroke-linejoin="round"/>
<path d="M262.315 44.9738C270.82 41.2362 279.94 39.0457 289.231 38.5086C293.668 38.3336 298.092 39.0457 302.235 40.6017C306.378 42.1577 310.155 44.5253 313.336 47.561L328.696 25.0642C328.696 25.0642 312.654 12.9674 296.081 14.9965C279.508 17.0255 263.053 40.2085 262.315 44.9738Z" fill="white" stroke="#121214" stroke-width="0.833333" stroke-linecap="round" stroke-linejoin="round"/>
<path d="M363.207 47.4443C363.207 47.4443 354.948 75.9735 331.97 81.901C331.97 81.901 357.668 107.062 370.987 109.03C370.987 109.03 396.46 95.0502 402.492 81.9987C402.492 81.9987 378.006 70.8224 363.207 47.4443Z" fill="white" stroke="#121214" stroke-width="0.833333" stroke-linecap="round" stroke-linejoin="round"/>
<path d="M121.019 210.266L127.606 166.192L58.0399 172.278L60.3377 215.575L121.019 210.266Z" fill="#121214" stroke="#121214" stroke-width="0.833333" stroke-linecap="round" stroke-linejoin="round"/>
<path d="M64.4483 155.605L68.5681 205.204L121.071 205.845L120.38 152.79L64.4483 155.605Z" fill="white" stroke="#121214" stroke-width="0.833333" stroke-linecap="round" stroke-linejoin="round"/>
<path d="M47.9837 165.346L60.3376 215.575L121.018 210.266L113.044 164.536L80.4849 167.385L77.0069 161.83L47.9837 165.346Z" fill="white" stroke="#121214" stroke-width="0.833333" stroke-linecap="round" stroke-linejoin="round"/>
<path d="M382.337 187.404L368.197 145.143L437.762 139.057L443.018 182.095L382.337 187.404Z" fill="#121214" stroke="#121214" stroke-width="0.833333" stroke-linecap="round" stroke-linejoin="round"/>
<path d="M428.556 123.75L433.112 173.311L381.518 183.059L372.986 130.69L428.556 123.75Z" fill="white" stroke="#121214" stroke-width="0.833333" stroke-linecap="round" stroke-linejoin="round"/>
<path d="M446.462 130.484L443.018 182.095L382.337 187.404L382.25 140.984L414.82 138.134L417.269 132.061L446.462 130.484Z" fill="white" stroke="#121214" stroke-width="0.833333" stroke-linecap="round" stroke-linejoin="round"/>
</svg>
