<svg width="196" height="216" viewBox="0 0 196 216" fill="none" xmlns="http://www.w3.org/2000/svg">
<g clip-path="url(#clip0_100_1223)" filter="url(#filter0_dddddd_100_1223)">
<path d="M140.426 29.538C144.655 29.5741 148.666 29.559 152.457 29.4928C157.393 29.4026 161.315 29.7275 164.224 30.4677C170.963 32.1828 176.572 35.7003 181.05 41.02C184.351 44.9497 186.479 50.453 187.433 57.53C188.708 67.0082 187.832 75.8544 184.805 84.0688C183.04 88.853 180.331 94.3202 176.677 100.47C156.311 134.745 127.316 165.463 94.4283 190.251C87.9829 195.107 83.8319 198.137 81.9754 199.341C70.2186 206.987 55.9614 208.395 41.92 207.916C36.8081 207.736 33.2879 205.47 31.3595 201.119C30.1534 198.393 30.7123 194.755 30.5848 191.767C30.5652 191.22 30.2547 190.937 29.6533 190.919C24.1949 190.775 18.9196 190.531 13.8273 190.188C11.8269 190.052 10.3071 190.441 8.8853 188.807C8.32312 188.157 8.03549 187.188 8.02241 185.9C7.97012 181.17 8.00933 176.28 8.14007 171.232C8.48653 157.445 8.69572 143.778 8.76762 130.232C8.77743 128.273 9.16966 126.359 9.13044 124.364C8.93433 114.715 9.38537 105.128 9.44421 95.7224C9.47362 89.4217 9.7776 83.0849 9.73837 76.8564C9.69915 68.3441 10.2286 59.6965 10.209 51.2835C10.2025 47.3117 10.2777 42.6659 10.4346 37.3461C10.6176 31.226 10.6764 25.3706 10.6111 19.78C10.5326 13.3078 14.092 7.98199 21.7011 8.00005C30.3953 8.02412 38.6449 8.04218 46.4501 8.05421C48.8917 8.05421 51.3627 8.40625 53.7944 8.41528C82.2892 8.51758 109.539 8.75529 135.543 9.12839C136.53 9.14208 137.473 9.50676 138.175 10.1461C138.877 10.7855 139.283 11.6499 139.308 12.5586L139.808 28.9783C139.815 29.3454 140.021 29.532 140.426 29.538ZM38.1841 29.7636C41.7533 28.0215 45.7245 28.8158 49.529 28.8068C61.4786 28.7827 73.7322 28.8279 86.2898 28.9422C87.9175 28.9603 89.6334 28.9873 91.4377 29.0234C104.597 29.3003 117.723 29.3514 130.816 29.1769C130.952 29.1747 131.081 29.1248 131.178 29.0375C131.275 28.9502 131.331 28.8321 131.336 28.7075C131.473 24.9945 131.379 21.2213 131.052 17.3879C131.019 16.9606 130.771 16.7621 130.307 16.7921C127.953 16.9546 125.571 16.5123 123.305 16.5304C113.52 16.6086 103.708 16.5394 93.8694 16.3227C83.3579 16.0881 73.0524 16.2054 63.2469 16.0158C56.6903 15.8955 50.1664 15.8233 43.6752 15.7992C36.6479 15.7751 29.2349 15.748 21.4363 15.718C19.0634 15.7089 18.9065 17.8573 18.8967 19.5002C18.8052 31.9511 18.6287 44.8173 18.3672 58.0987C18.0796 72.5777 17.8965 86.0427 17.8181 98.4936C17.8083 100.461 17.3474 102.384 17.3965 104.352C17.6122 113.812 17.0925 123.119 17.1415 132.498C17.1677 136.794 17.1186 141.112 16.9944 145.451C16.8049 152.233 16.6316 158.997 16.4747 165.743C16.3309 172.038 16.3277 177.529 16.4649 182.217C16.4715 182.494 16.6251 182.641 16.9258 182.659L30.5946 183.454C30.6357 183.456 30.6769 183.451 30.7156 183.438C30.7543 183.425 30.7895 183.404 30.8191 183.378C30.8487 183.352 30.8719 183.32 30.8873 183.285C30.9027 183.25 30.9099 183.212 30.9084 183.174C30.9019 172.191 30.915 161.215 30.9476 150.244C30.9476 148.538 31.2712 146.534 31.2712 144.666C31.2778 133.322 31.2908 121.464 31.3104 109.091C31.3104 106.925 31.683 104.605 31.6732 102.565C31.634 92.4968 31.6307 82.4079 31.6634 72.2979C31.6929 64.6702 32.2616 50.8412 31.9772 39.9278C31.853 35.2279 33.922 31.8398 38.1841 29.7636ZM166.41 39.5035C160.164 36.4976 154.173 37.4906 147.809 37.1566C144.221 36.964 140.7 36.8707 137.249 36.8768C125.901 36.9068 114.409 36.9008 102.773 36.8587C101.018 36.8587 99.2036 36.5428 97.468 36.5518C81.1975 36.6842 63.3188 36.5668 43.832 36.1997C41.665 36.1636 40.2628 37.5628 40.3609 39.5577C40.7237 46.9687 39.9883 54.0999 39.9785 61.2039C39.9589 72.5416 39.9 84.5924 39.802 97.1486C39.7039 109.786 39.6091 122.424 39.5176 135.061C39.498 137.167 39.4784 139.274 39.4588 141.38C39.3542 153.476 39.2954 165.144 39.2823 176.386C39.2725 179.112 38.8018 181.802 39.0273 184.501C39.4 188.951 38.743 193.311 39.0666 197.933C39.1084 198.532 39.3938 199.096 39.8662 199.511C40.3386 199.925 40.9633 200.161 41.616 200.171C49.0093 200.271 56.2262 200.514 63.3449 198.709C80.7399 194.268 92.0554 182.849 96.5659 166.826C100.998 151.039 101.557 136.036 98.2132 120.465C97.9452 119.219 98.0367 118.04 98.4878 116.926C100.008 113.18 104.195 113.794 107.509 114.724C136.759 122.857 166.165 108.504 176.549 82.453C179.916 74.01 180.583 64.8658 178.55 55.0206C177.066 47.8654 173.019 42.693 166.41 39.5035Z" fill="black"/>
<path d="M38.1841 29.7637C33.922 31.8398 31.853 35.2279 31.9772 39.9278C32.2616 50.8412 31.6929 64.6703 31.6634 72.2979C31.6308 82.4079 31.634 92.4968 31.6732 102.565C31.6831 104.605 31.3104 106.925 31.3104 109.091C31.2908 121.464 31.2778 133.322 31.2712 144.666C31.2712 146.534 30.9476 148.538 30.9476 150.244C30.915 161.215 30.9019 172.191 30.9084 183.174C30.9099 183.212 30.9027 183.25 30.8873 183.285C30.8719 183.32 30.8487 183.352 30.8191 183.378C30.7895 183.404 30.7543 183.425 30.7156 183.438C30.677 183.451 30.6357 183.456 30.5947 183.454L16.9258 182.659C16.6251 182.641 16.4715 182.494 16.4649 182.217C16.3277 177.529 16.3309 172.038 16.4747 165.743C16.6316 158.997 16.8049 152.233 16.9945 145.451C17.1187 141.112 17.1677 136.794 17.1415 132.498C17.0925 123.119 17.6122 113.812 17.3965 104.352C17.3474 102.384 17.8083 100.461 17.8181 98.4936C17.8966 86.0427 18.0796 72.5777 18.3672 58.0988C18.6287 44.8173 18.8052 31.9512 18.8967 19.5002C18.9065 17.8573 19.0634 15.709 21.4363 15.718C29.235 15.7481 36.6479 15.7752 43.6752 15.7992C50.1664 15.8233 56.6903 15.8955 63.2469 16.0159C73.0524 16.2054 83.358 16.0881 93.8694 16.3228C103.708 16.5394 113.52 16.6086 123.305 16.5304C125.571 16.5123 127.953 16.9547 130.307 16.7922C130.771 16.7621 131.019 16.9607 131.052 17.3879C131.379 21.2213 131.473 24.9945 131.336 28.7075C131.331 28.8321 131.275 28.9502 131.178 29.0375C131.081 29.1248 130.952 29.1747 130.816 29.1769C117.723 29.3514 104.597 29.3003 91.4377 29.0235C89.6335 28.9874 87.9175 28.9603 86.2898 28.9422C73.7322 28.8279 61.4787 28.7828 49.529 28.8068C45.7245 28.8159 41.7533 28.0215 38.1841 29.7637Z" fill="white"/>
<path d="M166.41 39.5036C173.019 42.693 177.066 47.8654 178.55 55.0206C180.583 64.8658 179.916 74.01 176.549 82.453C166.165 108.504 136.759 122.857 107.509 114.724C104.195 113.794 100.008 113.18 98.4878 116.926C98.0367 118.04 97.9452 119.219 98.2132 120.465C101.557 136.036 100.998 151.039 96.5659 166.826C92.0554 182.849 80.7399 194.268 63.3449 198.709C56.2262 200.514 49.0093 200.271 41.616 200.171C40.9633 200.161 40.3386 199.925 39.8662 199.511C39.3938 199.096 39.1084 198.532 39.0666 197.933C38.743 193.311 39.4 188.951 39.0273 184.501C38.8018 181.802 39.2725 179.112 39.2823 176.386C39.2954 165.144 39.3542 153.476 39.4588 141.38C39.4784 139.274 39.498 137.167 39.5176 135.061C39.6091 122.424 39.7039 109.786 39.802 97.1486C39.9 84.5924 39.9589 72.5416 39.9785 61.204C39.9883 54.0999 40.7237 46.9687 40.3609 39.5577C40.2628 37.5628 41.665 36.1636 43.832 36.1997C63.3188 36.5668 81.1975 36.6842 97.4681 36.5518C99.2036 36.5428 101.018 36.8587 102.773 36.8587C114.409 36.9008 125.901 36.9068 137.249 36.8768C140.7 36.8707 144.221 36.964 147.809 37.1566C154.173 37.4906 160.164 36.4976 166.41 39.5036Z" fill="white"/>
</g>
<defs>
<filter id="filter0_dddddd_100_1223" x="6" y="6" width="184" height="204" filterUnits="userSpaceOnUse" color-interpolation-filters="sRGB">
<feFlood flood-opacity="0" result="BackgroundImageFix"/>
<feColorMatrix in="SourceAlpha" type="matrix" values="0 0 0 0 0 0 0 0 0 0 0 0 0 0 0 0 0 0 127 0" result="hardAlpha"/>
<feOffset dx="2" dy="-2"/>
<feColorMatrix type="matrix" values="0 0 0 0 0 0 0 0 0 0 0 0 0 0 0 0 0 0 1 0"/>
<feBlend mode="normal" in2="BackgroundImageFix" result="effect1_dropShadow_100_1223"/>
<feColorMatrix in="SourceAlpha" type="matrix" values="0 0 0 0 0 0 0 0 0 0 0 0 0 0 0 0 0 0 127 0" result="hardAlpha"/>
<feOffset dx="-2" dy="2"/>
<feColorMatrix type="matrix" values="0 0 0 0 0 0 0 0 0 0 0 0 0 0 0 0 0 0 1 0"/>
<feBlend mode="normal" in2="effect1_dropShadow_100_1223" result="effect2_dropShadow_100_1223"/>
<feColorMatrix in="SourceAlpha" type="matrix" values="0 0 0 0 0 0 0 0 0 0 0 0 0 0 0 0 0 0 127 0" result="hardAlpha"/>
<feOffset dy="2"/>
<feColorMatrix type="matrix" values="0 0 0 0 0 0 0 0 0 0 0 0 0 0 0 0 0 0 1 0"/>
<feBlend mode="normal" in2="effect2_dropShadow_100_1223" result="effect3_dropShadow_100_1223"/>
<feColorMatrix in="SourceAlpha" type="matrix" values="0 0 0 0 0 0 0 0 0 0 0 0 0 0 0 0 0 0 127 0" result="hardAlpha"/>
<feOffset dy="2"/>
<feColorMatrix type="matrix" values="0 0 0 0 0 0 0 0 0 0 0 0 0 0 0 0 0 0 1 0"/>
<feBlend mode="normal" in2="effect3_dropShadow_100_1223" result="effect4_dropShadow_100_1223"/>
<feColorMatrix in="SourceAlpha" type="matrix" values="0 0 0 0 0 0 0 0 0 0 0 0 0 0 0 0 0 0 127 0" result="hardAlpha"/>
<feOffset dx="-2" dy="-2"/>
<feColorMatrix type="matrix" values="0 0 0 0 0 0 0 0 0 0 0 0 0 0 0 0 0 0 1 0"/>
<feBlend mode="normal" in2="effect4_dropShadow_100_1223" result="effect5_dropShadow_100_1223"/>
<feColorMatrix in="SourceAlpha" type="matrix" values="0 0 0 0 0 0 0 0 0 0 0 0 0 0 0 0 0 0 127 0" result="hardAlpha"/>
<feOffset dx="2" dy="2"/>
<feColorMatrix type="matrix" values="0 0 0 0 0 0 0 0 0 0 0 0 0 0 0 0 0 0 1 0"/>
<feBlend mode="normal" in2="effect5_dropShadow_100_1223" result="effect6_dropShadow_100_1223"/>
<feBlend mode="normal" in="SourceGraphic" in2="effect6_dropShadow_100_1223" result="shape"/>
</filter>
<clipPath id="clip0_100_1223">
<rect width="180" height="200" fill="white" transform="translate(8 8)"/>
</clipPath>
</defs>
</svg>
