<svg width="586" height="710" viewBox="0 0 586 710" fill="none" xmlns="http://www.w3.org/2000/svg">
<path d="M117.622 708.764L560.19 639.793L461.427 3.96933L18.8332 73.0945C16.1494 73.5126 13.5741 74.4563 11.2545 75.8715C8.93492 77.2868 6.91641 79.1459 5.31426 81.3427C3.7121 83.5394 2.5577 86.0308 1.91702 88.6746C1.27633 91.3183 1.16192 94.0626 1.58028 96.7506L94.1068 691.483C94.9445 696.895 97.8903 701.753 102.298 704.992C106.706 708.232 112.217 709.588 117.622 708.764Z" fill="#121214" stroke="#121214" stroke-width="0.786164" stroke-miterlimit="10" stroke-linecap="round"/>
<path d="M125.84 686.54L100.585 690.478C98.8098 690.755 96.9977 690.314 95.5471 689.253C94.0965 688.191 93.1264 686.596 92.85 684.818L83.9629 627.647C83.6866 625.869 84.1266 624.054 85.1863 622.601C86.246 621.148 87.8386 620.176 89.6136 619.899L114.869 615.961L125.84 686.54Z" fill="#F8F8F8" stroke="#121214" stroke-width="0.786164" stroke-miterlimit="10" stroke-linecap="round"/>
<path d="M114.33 612.348L89.0741 616.286C87.299 616.563 85.487 616.123 84.0364 615.061C82.5858 614 81.6157 612.404 81.3393 610.627L72.4522 553.455C72.1758 551.677 72.6159 549.862 73.6756 548.409C74.7353 546.956 76.3278 545.984 78.1029 545.708L103.358 541.769L114.33 612.348Z" fill="#F8F8F8" stroke="#121214" stroke-width="0.786164" stroke-miterlimit="10" stroke-linecap="round"/>
<path d="M102.773 538.029L77.5174 541.968C75.7424 542.245 73.9303 541.804 72.4798 540.743C71.0292 539.681 70.059 538.086 69.7826 536.308L60.8956 479.137C60.6192 477.359 61.0593 475.544 62.119 474.091C63.1787 472.638 64.7712 471.666 66.5462 471.389L91.8017 467.45L102.773 538.029Z" fill="#F8F8F8" stroke="#121214" stroke-width="0.786164" stroke-miterlimit="10" stroke-linecap="round"/>
<path d="M91.2656 463.863L66.0101 467.802C64.2351 468.079 62.423 467.638 60.9724 466.576C59.5218 465.515 58.5517 463.92 58.2753 462.142L49.3882 404.97C49.1118 403.192 49.5519 401.377 50.6116 399.924C51.6713 398.471 53.2639 397.5 55.0389 397.223L80.2944 393.284L91.2656 463.863Z" fill="#F8F8F8" stroke="#121214" stroke-width="0.786164" stroke-miterlimit="10" stroke-linecap="round"/>
<path d="M43.6003 323.02L58.7061 320.665L20.1875 72.8385L483.229 0.666656L581.992 636.465L118.976 708.56L69.6713 391.249L54.5655 393.605C52.8001 393.869 51.002 393.423 49.5649 392.362C48.1277 391.302 47.1686 389.714 46.8975 387.947L37.8749 330.778C37.7373 329.891 37.7766 328.986 37.9905 328.115C38.2044 327.244 38.5887 326.424 39.1212 325.702C39.6537 324.981 40.3237 324.372 41.0926 323.912C41.8614 323.452 42.7138 323.149 43.6003 323.02Z" fill="#F8F8F8" stroke="#121214" stroke-width="0.786164" stroke-miterlimit="10" stroke-linecap="round"/>
<path d="M93.1099 208.221L94.6435 242.963L267.428 214.724L262.904 185.641L93.1099 208.221Z" fill="#F8F8F8"/>
<path d="M457.491 39.5559C457.746 41.3357 458.524 42.9992 459.726 44.3347C460.928 45.6703 462.5 46.6175 464.241 47.056C465.981 47.4945 467.813 47.4044 469.503 46.7972C471.193 46.1899 472.664 45.093 473.729 43.6459C474.795 42.1988 475.406 40.467 475.486 38.6707C475.566 36.8744 475.111 35.0949 474.179 33.5585C473.246 32.0221 471.878 30.7982 470.249 30.0426C468.621 29.287 466.804 29.0338 465.031 29.3152C462.683 29.6878 460.576 30.971 459.165 32.8873C457.754 34.8036 457.153 37.1991 457.491 39.5559Z" fill="#121214" stroke="#121214" stroke-width="0.786164" stroke-miterlimit="10" stroke-linecap="round"/>
<path d="M467.28 36.7398L494.322 32.5155C494.945 32.3855 495.498 32.0275 495.871 31.5114C496.245 30.9953 496.412 30.3583 496.342 29.7249C496.212 29.1009 495.855 28.5477 495.339 28.1737C494.824 27.7996 494.188 27.6315 493.556 27.7023L466.616 31.8754C465.988 31.9998 465.43 32.3554 465.051 32.8721C464.672 33.3888 464.501 34.0289 464.571 34.666C464.689 35.2851 465.03 35.8389 465.53 36.2216C466.03 36.6042 466.653 36.7887 467.28 36.7398Z" fill="#F8F8F8" stroke="#121214" stroke-width="0.786164" stroke-miterlimit="10" stroke-linecap="round"/>
<path d="M468.405 43.3962L495.396 39.1975C496.024 39.0732 496.582 38.7175 496.961 38.2008C497.339 37.6841 497.511 37.044 497.441 36.4069C497.317 35.7782 496.962 35.219 496.446 34.8397C495.93 34.4605 495.291 34.2889 494.655 34.3588L467.613 38.5831C466.99 38.713 466.437 39.071 466.064 39.5871C465.691 40.1032 465.523 40.7403 465.593 41.3737C465.723 42.0026 466.085 42.5596 466.605 42.9343C467.126 43.3089 467.769 43.4738 468.405 43.3962Z" fill="#F8F8F8" stroke="#121214" stroke-width="0.786164" stroke-miterlimit="10" stroke-linecap="round"/>
<path d="M462.168 69.075C462.419 70.8508 463.191 72.512 464.385 73.8485C465.579 75.1849 467.142 76.1365 468.876 76.5827C470.61 77.0289 472.438 76.9497 474.127 76.3551C475.816 75.7605 477.292 74.6772 478.366 73.2425C479.44 71.8077 480.065 70.0859 480.162 68.295C480.259 66.5042 479.823 64.7248 478.91 63.1821C477.997 61.6394 476.647 60.4029 475.032 59.6289C473.417 58.8549 471.609 58.5784 469.836 58.8342C467.465 59.1766 465.326 60.447 463.889 62.3668C462.451 64.2865 461.833 66.699 462.168 69.075Z" fill="#121214" stroke="#121214" stroke-width="0.786164" stroke-miterlimit="10" stroke-linecap="round"/>
<path d="M471.958 66.2588L498.975 62.06C499.603 61.9357 500.161 61.5801 500.539 61.0634C500.918 60.5467 501.089 59.9065 501.02 59.2694C500.895 58.6407 500.54 58.0815 500.025 57.7023C499.509 57.3231 498.87 57.1514 498.234 57.2213L471.191 61.4456C470.568 61.5755 470.016 61.9336 469.643 62.4496C469.269 62.9657 469.101 63.6028 469.172 64.2362C469.302 64.8602 469.659 65.4133 470.174 65.7874C470.69 66.1614 471.326 66.3295 471.958 66.2588Z" fill="#F8F8F8" stroke="#121214" stroke-width="0.786164" stroke-miterlimit="10" stroke-linecap="round"/>
<path d="M472.98 72.8385L500.023 68.6398C500.646 68.5098 501.198 68.1518 501.571 67.6357C501.945 67.1196 502.113 66.4826 502.042 65.8492C501.918 65.2204 501.563 64.6612 501.047 64.282C500.531 63.9028 499.892 63.7311 499.256 63.801L472.239 68.0253C471.611 68.1497 471.053 68.5053 470.675 69.022C470.296 69.5387 470.125 70.1788 470.194 70.8159C470.324 71.4399 470.682 71.993 471.197 72.3671C471.712 72.7411 472.348 72.9092 472.98 72.8385Z" fill="#F8F8F8" stroke="#121214" stroke-width="0.786164" stroke-miterlimit="10" stroke-linecap="round"/>
<path d="M466.667 98.6196C466.922 100.399 467.7 102.063 468.902 103.398C470.104 104.734 471.675 105.681 473.416 106.12C475.157 106.558 476.989 106.468 478.679 105.861C480.368 105.254 481.839 104.157 482.905 102.71C483.97 101.262 484.582 99.5306 484.662 97.7344C484.742 95.9381 484.287 94.1586 483.354 92.6221C482.422 91.0857 481.054 89.8619 479.425 89.1063C477.796 88.3507 475.98 88.0975 474.207 88.3789C471.859 88.7515 469.752 90.0346 468.341 91.9509C466.93 93.8672 466.329 96.2628 466.667 98.6196Z" fill="#121214" stroke="#121214" stroke-width="0.786164" stroke-miterlimit="10" stroke-linecap="round"/>
<path d="M476.533 95.8801L503.576 91.6814C504.199 91.5515 504.751 91.1935 505.124 90.6774C505.498 90.1613 505.665 89.5243 505.595 88.8908C505.471 88.2621 505.115 87.7028 504.6 87.3236C504.084 86.9444 503.445 86.7728 502.809 86.8427L475.792 91.067C475.164 91.1913 474.606 91.547 474.227 92.0637C473.849 92.5804 473.677 93.2205 473.747 93.8576C473.877 94.4816 474.234 95.0347 474.75 95.4087C475.265 95.7828 475.901 95.9509 476.533 95.8801Z" fill="#F8F8F8" stroke="#121214" stroke-width="0.786164" stroke-miterlimit="10" stroke-linecap="round"/>
<path d="M477.504 102.485L504.521 98.2611C505.144 98.1371 505.698 97.7852 506.076 97.274C506.454 96.7629 506.629 96.1291 506.566 95.4962C506.442 94.8674 506.086 94.3082 505.571 93.929C505.055 93.5498 504.416 93.3781 503.78 93.448L476.763 97.6723C476.14 97.7964 475.586 98.1483 475.208 98.6594C474.83 99.1706 474.655 99.8044 474.718 100.437C474.842 101.066 475.197 101.625 475.713 102.005C476.229 102.384 476.868 102.555 477.504 102.485Z" fill="#F8F8F8" stroke="#121214" stroke-width="0.786164" stroke-miterlimit="10" stroke-linecap="round"/>
<path d="M471.242 128.164C471.493 129.94 472.265 131.601 473.459 132.938C474.653 134.274 476.216 135.226 477.95 135.672C479.684 136.118 481.512 136.039 483.201 135.444C484.89 134.85 486.365 133.767 487.44 132.332C488.514 130.897 489.139 129.175 489.236 127.384C489.333 125.593 488.897 123.814 487.984 122.271C487.071 120.729 485.721 119.492 484.106 118.718C482.491 117.944 480.682 117.668 478.91 117.924C476.539 118.266 474.4 119.536 472.963 121.456C471.525 123.376 470.906 125.788 471.242 128.164Z" fill="#121214" stroke="#121214" stroke-width="0.786164" stroke-miterlimit="10" stroke-linecap="round"/>
<path d="M481.134 125.348L508.176 121.124C508.799 121 509.354 120.648 509.732 120.137C510.11 119.625 510.284 118.992 510.221 118.359C510.097 117.73 509.742 117.171 509.226 116.792C508.71 116.412 508.071 116.241 507.435 116.31L480.393 120.535C480.078 120.582 479.776 120.69 479.503 120.855C479.231 121.02 478.994 121.237 478.806 121.495C478.618 121.752 478.483 122.044 478.409 122.354C478.335 122.664 478.323 122.985 478.374 123.3C478.498 123.924 478.849 124.479 479.359 124.858C479.869 125.236 480.502 125.411 481.134 125.348Z" fill="#F8F8F8" stroke="#121214" stroke-width="0.786164" stroke-miterlimit="10" stroke-linecap="round"/>
<path d="M482.156 132.03L509.198 127.806C509.515 127.759 509.82 127.649 510.094 127.483C510.369 127.317 510.607 127.097 510.795 126.837C510.983 126.577 511.117 126.282 511.19 125.969C511.262 125.656 511.272 125.332 511.217 125.015C511.171 124.7 511.062 124.397 510.897 124.124C510.733 123.851 510.516 123.614 510.259 123.426C510.002 123.238 509.711 123.103 509.401 123.028C509.092 122.954 508.771 122.942 508.457 122.993L481.414 127.191C480.791 127.321 480.239 127.679 479.866 128.195C479.492 128.711 479.325 129.349 479.395 129.982C479.519 130.606 479.87 131.161 480.381 131.54C480.891 131.918 481.524 132.093 482.156 132.03Z" fill="#F8F8F8" stroke="#121214" stroke-width="0.786164" stroke-miterlimit="10" stroke-linecap="round"/>
<path d="M475.843 157.709C476.098 159.489 476.877 161.152 478.078 162.488C479.28 163.823 480.852 164.77 482.593 165.209C484.333 165.647 486.165 165.557 487.855 164.95C489.545 164.343 491.016 163.246 492.081 161.799C493.147 160.352 493.758 158.62 493.838 156.824C493.918 155.027 493.463 153.248 492.531 151.711C491.598 150.175 490.23 148.951 488.602 148.195C486.973 147.44 485.156 147.187 483.383 147.468C481.035 147.841 478.928 149.124 477.517 151.04C476.106 152.956 475.505 155.352 475.843 157.709Z" fill="#121214" stroke="#121214" stroke-width="0.786164" stroke-miterlimit="10" stroke-linecap="round"/>
<path d="M485.709 154.893L512.751 150.668C513.374 150.538 513.926 150.18 514.3 149.664C514.673 149.148 514.841 148.511 514.77 147.878C514.724 147.562 514.615 147.26 514.45 146.987C514.286 146.714 514.069 146.477 513.812 146.288C513.555 146.1 513.264 145.965 512.954 145.891C512.645 145.816 512.324 145.804 512.01 145.855L484.968 150.054C484.345 150.184 483.792 150.542 483.419 151.058C483.046 151.574 482.878 152.211 482.948 152.844C483.072 153.468 483.424 154.024 483.934 154.402C484.444 154.781 485.077 154.956 485.709 154.893Z" fill="#F8F8F8" stroke="#121214" stroke-width="0.786164" stroke-miterlimit="10" stroke-linecap="round"/>
<path d="M486.757 161.575L513.774 157.325C514.401 157.2 514.96 156.845 515.338 156.328C515.717 155.811 515.888 155.171 515.818 154.534C515.689 153.91 515.331 153.357 514.816 152.983C514.301 152.609 513.665 152.441 513.032 152.512L486.016 156.71C485.388 156.835 484.83 157.19 484.451 157.707C484.072 158.224 483.901 158.864 483.971 159.501C484.089 160.134 484.442 160.7 484.958 161.084C485.475 161.469 486.117 161.644 486.757 161.575Z" fill="#F8F8F8" stroke="#121214" stroke-width="0.786164" stroke-miterlimit="10" stroke-linecap="round"/>
<path d="M480.418 187.253C480.693 189.019 481.483 190.665 482.689 191.982C483.894 193.3 485.462 194.23 487.195 194.658C488.927 195.085 490.747 194.99 492.426 194.384C494.105 193.778 495.567 192.688 496.629 191.252C497.691 189.816 498.305 188.097 498.395 186.312C498.485 184.527 498.045 182.756 497.132 181.22C496.219 179.685 494.873 178.454 493.264 177.682C491.654 176.911 489.853 176.633 488.086 176.885C486.899 177.053 485.758 177.457 484.728 178.071C483.699 178.685 482.801 179.498 482.087 180.463C481.374 181.428 480.859 182.525 480.573 183.69C480.286 184.856 480.233 186.067 480.418 187.253Z" fill="#121214" stroke="#121214" stroke-width="0.786164" stroke-miterlimit="10" stroke-linecap="round"/>
<path d="M490.284 184.437L517.301 180.213C517.929 180.088 518.487 179.733 518.865 179.216C519.244 178.699 519.415 178.059 519.346 177.422C519.216 176.798 518.859 176.245 518.343 175.871C517.828 175.497 517.192 175.329 516.56 175.4L489.543 179.598C488.915 179.723 488.357 180.078 487.978 180.595C487.6 181.112 487.428 181.752 487.498 182.389C487.622 183.018 487.977 183.577 488.493 183.956C489.009 184.335 489.648 184.507 490.284 184.437Z" fill="#F8F8F8" stroke="#121214" stroke-width="0.786164" stroke-miterlimit="10" stroke-linecap="round"/>
<path d="M491.357 191.094L518.4 186.895C519.027 186.771 519.586 186.415 519.964 185.898C520.343 185.382 520.514 184.741 520.444 184.104C520.32 183.476 519.965 182.916 519.449 182.537C518.934 182.158 518.294 181.986 517.658 182.056L490.616 186.281C489.993 186.41 489.441 186.768 489.067 187.285C488.694 187.801 488.526 188.438 488.597 189.071C488.726 189.69 489.08 190.24 489.59 190.613C490.099 190.986 490.729 191.158 491.357 191.094Z" fill="#F8F8F8" stroke="#121214" stroke-width="0.786164" stroke-miterlimit="10" stroke-linecap="round"/>
<path d="M485.019 216.772C485.274 218.552 486.052 220.216 487.254 221.551C488.456 222.887 490.027 223.834 491.768 224.273C493.509 224.711 495.341 224.621 497.031 224.014C498.72 223.406 500.192 222.309 501.257 220.862C502.322 219.415 502.934 217.683 503.014 215.887C503.094 214.091 502.639 212.311 501.707 210.775C500.774 209.239 499.406 208.015 497.777 207.259C496.148 206.503 494.332 206.25 492.559 206.532C490.211 206.904 488.104 208.187 486.693 210.104C485.282 212.02 484.681 214.416 485.019 216.772Z" fill="#121214" stroke="#121214" stroke-width="0.786164" stroke-miterlimit="10" stroke-linecap="round"/>
<path d="M494.885 213.956L521.927 209.757C522.555 209.633 523.113 209.277 523.492 208.761C523.871 208.244 524.042 207.604 523.972 206.967C523.843 206.343 523.485 205.79 522.97 205.416C522.455 205.042 521.819 204.874 521.186 204.944L494.144 209.143C493.521 209.273 492.969 209.631 492.595 210.147C492.222 210.663 492.054 211.3 492.125 211.934C492.168 212.25 492.275 212.555 492.438 212.83C492.602 213.104 492.819 213.343 493.076 213.532C493.334 213.721 493.627 213.855 493.938 213.928C494.248 214.001 494.571 214.011 494.885 213.956Z" fill="#F8F8F8" stroke="#121214" stroke-width="0.786164" stroke-miterlimit="10" stroke-linecap="round"/>
<path d="M495.933 220.638L522.975 216.439C523.598 216.31 524.15 215.952 524.524 215.435C524.897 214.919 525.065 214.282 524.994 213.649C524.87 213.02 524.515 212.461 523.999 212.082C523.483 211.703 522.844 211.531 522.208 211.601L495.191 215.825C494.564 215.949 494.005 216.305 493.627 216.822C493.248 217.338 493.077 217.979 493.147 218.616C493.276 219.24 493.634 219.793 494.149 220.167C494.664 220.541 495.3 220.709 495.933 220.638Z" fill="#F8F8F8" stroke="#121214" stroke-width="0.786164" stroke-miterlimit="10" stroke-linecap="round"/>
<path d="M489.62 246.317C489.875 248.097 490.653 249.76 491.855 251.096C493.057 252.431 494.629 253.379 496.37 253.817C498.11 254.256 499.942 254.166 501.632 253.558C503.321 252.951 504.793 251.854 505.858 250.407C506.924 248.96 507.535 247.228 507.615 245.432C507.695 243.636 507.24 241.856 506.308 240.32C505.375 238.783 504.007 237.559 502.378 236.804C500.75 236.048 498.933 235.795 497.16 236.076C494.812 236.449 492.705 237.732 491.294 239.648C489.883 241.565 489.282 243.96 489.62 246.317Z" fill="#121214" stroke="#121214" stroke-width="0.786164" stroke-miterlimit="10" stroke-linecap="round"/>
<path d="M499.485 243.501L526.528 239.251C527.151 239.121 527.703 238.763 528.076 238.247C528.45 237.731 528.617 237.094 528.547 236.46C528.423 235.832 528.068 235.272 527.552 234.893C527.036 234.514 526.397 234.342 525.761 234.412L498.744 238.636C498.116 238.761 497.558 239.117 497.18 239.633C496.801 240.15 496.63 240.79 496.699 241.427C496.818 242.061 497.171 242.626 497.687 243.01C498.203 243.395 498.846 243.57 499.485 243.501Z" fill="#F8F8F8" stroke="#121214" stroke-width="0.786164" stroke-miterlimit="10" stroke-linecap="round"/>
<path d="M500.508 250.183L527.525 245.959C528.148 245.835 528.702 245.483 529.08 244.972C529.458 244.46 529.633 243.827 529.57 243.194C529.446 242.565 529.091 242.006 528.575 241.626C528.059 241.247 527.42 241.076 526.784 241.146L499.742 245.37C499.119 245.5 498.566 245.858 498.193 246.374C497.819 246.89 497.652 247.527 497.722 248.16C497.852 248.784 498.209 249.338 498.725 249.712C499.24 250.086 499.876 250.254 500.508 250.183Z" fill="#F8F8F8" stroke="#121214" stroke-width="0.786164" stroke-miterlimit="10" stroke-linecap="round"/>
<path d="M494.195 275.862C494.446 277.637 495.218 279.299 496.412 280.635C497.606 281.972 499.169 282.923 500.903 283.369C502.637 283.816 504.465 283.736 506.154 283.142C507.843 282.547 509.318 281.464 510.393 280.029C511.467 278.594 512.092 276.873 512.189 275.082C512.286 273.291 511.85 271.511 510.937 269.969C510.024 268.426 508.674 267.19 507.059 266.416C505.444 265.642 503.635 265.365 501.863 265.621C499.492 265.963 497.353 267.234 495.916 269.153C494.478 271.073 493.859 273.486 494.195 275.862Z" fill="#121214" stroke="#121214" stroke-width="0.786164" stroke-miterlimit="10" stroke-linecap="round"/>
<path d="M504.086 273.045L531.18 268.847C531.808 268.722 532.366 268.367 532.744 267.85C533.123 267.333 533.294 266.693 533.225 266.056C533.1 265.427 532.745 264.868 532.23 264.489C531.714 264.11 531.075 263.938 530.439 264.008L503.396 268.232C502.773 268.362 502.221 268.72 501.848 269.236C501.474 269.752 501.307 270.389 501.377 271.023C501.506 271.632 501.852 272.174 502.351 272.547C502.849 272.919 503.466 273.096 504.086 273.045Z" fill="#F8F8F8" stroke="#121214" stroke-width="0.786164" stroke-miterlimit="10" stroke-linecap="round"/>
<path d="M505.109 279.728L532.152 275.503C532.774 275.373 533.327 275.015 533.7 274.499C534.074 273.983 534.241 273.346 534.171 272.713C534.041 272.089 533.684 271.536 533.168 271.162C532.653 270.787 532.017 270.619 531.385 270.69L504.368 274.914C503.745 275.039 503.191 275.39 502.813 275.902C502.435 276.413 502.26 277.046 502.323 277.679C502.447 278.308 502.802 278.867 503.318 279.247C503.834 279.626 504.473 279.797 505.109 279.728Z" fill="#F8F8F8" stroke="#121214" stroke-width="0.786164" stroke-miterlimit="10" stroke-linecap="round"/>
<path d="M498.796 305.406C499.051 307.186 499.829 308.849 501.031 310.185C502.233 311.521 503.804 312.468 505.545 312.906C507.286 313.345 509.118 313.255 510.808 312.647C512.497 312.04 513.968 310.943 515.034 309.496C516.099 308.049 516.711 306.317 516.791 304.521C516.871 302.725 516.416 300.945 515.483 299.409C514.551 297.872 513.183 296.648 511.554 295.893C509.925 295.137 508.109 294.884 506.336 295.165C503.988 295.538 501.881 296.821 500.47 298.738C499.059 300.654 498.457 303.049 498.796 305.406Z" fill="#121214" stroke="#121214" stroke-width="0.786164" stroke-miterlimit="10" stroke-linecap="round"/>
<path d="M508.662 302.59L535.704 298.366C536.327 298.236 536.879 297.878 537.253 297.362C537.626 296.846 537.794 296.209 537.723 295.575C537.594 294.951 537.236 294.398 536.721 294.024C536.206 293.65 535.57 293.482 534.937 293.553L507.921 297.777C507.298 297.901 506.743 298.253 506.365 298.764C505.987 299.275 505.813 299.909 505.876 300.542C506 301.171 506.355 301.73 506.871 302.109C507.387 302.488 508.026 302.66 508.662 302.59Z" fill="#F8F8F8" stroke="#121214" stroke-width="0.786164" stroke-miterlimit="10" stroke-linecap="round"/>
<path d="M509.71 309.272L536.726 305.048C537.354 304.923 537.912 304.568 538.291 304.051C538.669 303.534 538.841 302.894 538.771 302.257C538.641 301.633 538.284 301.08 537.769 300.706C537.253 300.332 536.617 300.164 535.985 300.235L508.943 304.433C508.32 304.563 507.768 304.921 507.394 305.437C507.021 305.953 506.853 306.591 506.924 307.224C507.048 307.853 507.403 308.412 507.919 308.791C508.434 309.17 509.073 309.342 509.71 309.272Z" fill="#F8F8F8" stroke="#121214" stroke-width="0.786164" stroke-miterlimit="10" stroke-linecap="round"/>
<path d="M503.371 334.951C503.646 336.717 504.436 338.362 505.642 339.679C506.847 340.997 508.415 341.928 510.148 342.355C511.88 342.783 513.7 342.687 515.379 342.081C517.058 341.476 518.52 340.386 519.582 338.95C520.644 337.514 521.259 335.795 521.348 334.01C521.438 332.225 520.998 330.453 520.085 328.918C519.172 327.382 517.826 326.151 516.217 325.38C514.607 324.608 512.806 324.331 511.039 324.582C509.852 324.751 508.711 325.154 507.681 325.769C506.652 326.383 505.754 327.196 505.041 328.161C504.327 329.125 503.812 330.222 503.526 331.388C503.239 332.554 503.187 333.765 503.371 334.951Z" fill="#121214" stroke="#121214" stroke-width="0.786164" stroke-miterlimit="10" stroke-linecap="round"/>
<path d="M513.288 332.135L540.305 327.91C540.933 327.786 541.491 327.43 541.869 326.914C542.248 326.397 542.419 325.757 542.35 325.12C542.22 324.496 541.863 323.943 541.347 323.569C540.832 323.195 540.196 323.027 539.564 323.097L512.521 327.296C511.898 327.426 511.346 327.784 510.973 328.3C510.599 328.816 510.432 329.453 510.502 330.087C510.626 330.715 510.981 331.275 511.497 331.654C512.013 332.033 512.652 332.205 513.288 332.135Z" fill="#F8F8F8" stroke="#121214" stroke-width="0.786164" stroke-miterlimit="10" stroke-linecap="round"/>
<path d="M514.285 338.791L541.404 334.592C542.027 334.463 542.579 334.105 542.953 333.588C543.326 333.072 543.494 332.435 543.423 331.802C543.38 331.485 543.273 331.18 543.11 330.906C542.946 330.631 542.729 330.392 542.472 330.204C542.214 330.015 541.921 329.88 541.61 329.807C541.3 329.734 540.977 329.725 540.663 329.779L513.544 333.978C512.916 334.102 512.358 334.458 511.979 334.975C511.601 335.491 511.429 336.132 511.499 336.769C511.629 337.393 511.986 337.946 512.502 338.32C513.017 338.694 513.653 338.862 514.285 338.791Z" fill="#F8F8F8" stroke="#121214" stroke-width="0.786164" stroke-miterlimit="10" stroke-linecap="round"/>
<path d="M507.972 364.47C508.227 366.25 509.005 367.913 510.207 369.249C511.409 370.584 512.981 371.531 514.722 371.97C516.462 372.408 518.294 372.318 519.984 371.711C521.673 371.104 523.145 370.007 524.21 368.56C525.276 367.113 525.887 365.381 525.967 363.585C526.047 361.788 525.592 360.009 524.66 358.472C523.727 356.936 522.359 355.712 520.73 354.957C519.102 354.201 517.285 353.948 515.512 354.229C513.164 354.602 511.057 355.885 509.646 357.801C508.235 359.717 507.634 362.113 507.972 364.47Z" fill="#121214" stroke="#121214" stroke-width="0.786164" stroke-miterlimit="10" stroke-linecap="round"/>
<path d="M517.837 361.679L544.88 357.455C545.503 357.325 546.055 356.967 546.428 356.451C546.802 355.935 546.97 355.298 546.899 354.664C546.77 354.045 546.416 353.496 545.906 353.123C545.396 352.749 544.767 352.578 544.138 352.642L517.096 356.841C516.468 356.965 515.91 357.321 515.532 357.837C515.153 358.354 514.982 358.994 515.051 359.631C515.176 360.26 515.531 360.819 516.046 361.198C516.562 361.578 517.201 361.749 517.837 361.679Z" fill="#F8F8F8" stroke="#121214" stroke-width="0.786164" stroke-miterlimit="10" stroke-linecap="round"/>
<path d="M518.886 368.336L545.902 364.137C546.53 364.013 547.088 363.657 547.467 363.14C547.846 362.624 548.017 361.984 547.947 361.347C547.823 360.718 547.468 360.159 546.952 359.779C546.436 359.4 545.797 359.229 545.161 359.298L518.144 363.523C517.517 363.647 516.958 364.003 516.58 364.519C516.201 365.036 516.03 365.676 516.1 366.313C516.229 366.937 516.587 367.49 517.102 367.864C517.617 368.239 518.253 368.407 518.886 368.336Z" fill="#F8F8F8" stroke="#121214" stroke-width="0.786164" stroke-miterlimit="10" stroke-linecap="round"/>
<path d="M512.547 394.015C512.798 395.79 513.569 397.452 514.763 398.788C515.957 400.125 517.52 401.076 519.254 401.522C520.989 401.968 522.816 401.889 524.505 401.295C526.195 400.7 527.67 399.617 528.744 398.182C529.818 396.747 530.443 395.025 530.54 393.235C530.637 391.444 530.201 389.664 529.288 388.122C528.375 386.579 527.025 385.342 525.41 384.568C523.795 383.794 521.987 383.518 520.214 383.774C517.846 384.123 515.711 385.394 514.275 387.313C512.839 389.231 512.218 391.64 512.547 394.015Z" fill="#121214" stroke="#121214" stroke-width="0.786164" stroke-miterlimit="10" stroke-linecap="round"/>
<path d="M522.438 391.198L549.455 387C550.083 386.875 550.641 386.52 551.02 386.003C551.398 385.486 551.57 384.846 551.5 384.209C551.376 383.58 551.021 383.021 550.505 382.642C549.989 382.263 549.35 382.091 548.714 382.161L521.697 386.385C521.07 386.51 520.511 386.865 520.133 387.382C519.754 387.899 519.583 388.539 519.652 389.176C519.782 389.8 520.14 390.353 520.655 390.727C521.17 391.101 521.806 391.269 522.438 391.198Z" fill="#F8F8F8" stroke="#121214" stroke-width="0.786164" stroke-miterlimit="10" stroke-linecap="round"/>
<path d="M523.512 397.983L550.554 393.784C551.177 393.654 551.73 393.296 552.103 392.78C552.476 392.264 552.644 391.627 552.574 390.993C552.45 390.37 552.098 389.814 551.588 389.436C551.078 389.057 550.445 388.882 549.813 388.945L522.771 393.17C522.148 393.3 521.596 393.658 521.222 394.174C520.849 394.69 520.681 395.327 520.752 395.96C520.798 396.276 520.907 396.578 521.072 396.851C521.236 397.124 521.453 397.361 521.71 397.55C521.967 397.738 522.258 397.873 522.568 397.947C522.877 398.022 523.198 398.034 523.512 397.983Z" fill="#F8F8F8" stroke="#121214" stroke-width="0.786164" stroke-miterlimit="10" stroke-linecap="round"/>
<path d="M517.147 423.585C517.403 425.365 518.181 427.028 519.383 428.364C520.585 429.699 522.156 430.646 523.897 431.085C525.638 431.523 527.47 431.433 529.159 430.826C530.849 430.219 532.32 429.122 533.385 427.675C534.451 426.228 535.063 424.496 535.143 422.7C535.223 420.903 534.767 419.124 533.835 417.587C532.902 416.051 531.535 414.827 529.906 414.072C528.277 413.316 526.46 413.063 524.687 413.344C522.339 413.717 520.232 415 518.821 416.916C517.41 418.832 516.809 421.228 517.147 423.585Z" fill="#121214" stroke="#121214" stroke-width="0.786164" stroke-miterlimit="10" stroke-linecap="round"/>
<path d="M527.014 420.743L554.184 416.544C554.501 416.498 554.806 416.388 555.08 416.222C555.354 416.055 555.593 415.835 555.781 415.575C555.969 415.315 556.103 415.02 556.176 414.707C556.248 414.394 556.258 414.07 556.203 413.754C556.079 413.13 555.728 412.574 555.218 412.196C554.707 411.817 554.075 411.642 553.443 411.705L526.272 415.904C525.955 415.951 525.651 416.06 525.376 416.227C525.102 416.393 524.864 416.613 524.675 416.873C524.487 417.133 524.353 417.428 524.28 417.741C524.208 418.054 524.199 418.378 524.253 418.695C524.297 419.012 524.403 419.318 524.567 419.594C524.73 419.869 524.946 420.11 525.203 420.3C525.461 420.491 525.753 420.629 526.064 420.705C526.375 420.781 526.698 420.794 527.014 420.743Z" fill="#F8F8F8" stroke="#121214" stroke-width="0.786164" stroke-miterlimit="10" stroke-linecap="round"/>
<path d="M528.062 427.425L555.079 423.201C555.396 423.157 555.701 423.05 555.976 422.887C556.251 422.723 556.491 422.507 556.682 422.249C556.872 421.992 557.009 421.698 557.085 421.387C557.161 421.076 557.174 420.752 557.123 420.436C556.999 419.807 556.644 419.248 556.128 418.869C555.612 418.489 554.973 418.318 554.337 418.388L527.321 422.612C526.698 422.736 526.143 423.088 525.765 423.599C525.387 424.11 525.213 424.744 525.276 425.377C525.4 426.006 525.755 426.565 526.271 426.944C526.787 427.323 527.426 427.495 528.062 427.425Z" fill="#F8F8F8" stroke="#121214" stroke-width="0.786164" stroke-miterlimit="10" stroke-linecap="round"/>
<path d="M521.723 453.104C521.974 454.88 522.745 456.541 523.939 457.877C525.133 459.214 526.696 460.165 528.431 460.611C530.165 461.058 531.992 460.978 533.682 460.384C535.371 459.789 536.846 458.706 537.92 457.271C538.995 455.836 539.62 454.115 539.717 452.324C539.814 450.533 539.378 448.754 538.465 447.211C537.551 445.668 536.202 444.432 534.586 443.658C532.971 442.884 531.163 442.607 529.391 442.863C527.022 443.212 524.888 444.484 523.451 446.402C522.015 448.32 521.394 450.729 521.723 453.104Z" fill="#121214" stroke="#121214" stroke-width="0.786164" stroke-miterlimit="10" stroke-linecap="round"/>
<path d="M531.614 450.288L558.631 446.063C559.254 445.939 559.808 445.587 560.186 445.076C560.564 444.565 560.739 443.931 560.676 443.298C560.551 442.67 560.196 442.11 559.681 441.731C559.165 441.352 558.526 441.18 557.89 441.25L530.873 445.474C530.25 445.599 529.696 445.95 529.318 446.462C528.94 446.973 528.765 447.607 528.828 448.239C528.952 448.868 529.307 449.427 529.823 449.807C530.339 450.186 530.978 450.357 531.614 450.288Z" fill="#F8F8F8" stroke="#121214" stroke-width="0.786164" stroke-miterlimit="10" stroke-linecap="round"/>
<path d="M532.662 456.867L559.679 452.643C560.307 452.519 560.865 452.163 561.243 451.646C561.622 451.13 561.793 450.489 561.724 449.852C561.594 449.228 561.237 448.675 560.721 448.301C560.206 447.927 559.57 447.759 558.938 447.83L531.895 452.028C531.272 452.158 530.72 452.516 530.347 453.033C529.973 453.549 529.806 454.186 529.876 454.819C530 455.448 530.355 456.007 530.871 456.386C531.387 456.766 532.026 456.937 532.662 456.867Z" fill="#F8F8F8" stroke="#121214" stroke-width="0.786164" stroke-miterlimit="10" stroke-linecap="round"/>
<path d="M526.324 482.648C526.579 484.428 527.357 486.092 528.559 487.427C529.761 488.763 531.333 489.71 533.074 490.149C534.814 490.587 536.646 490.497 538.336 489.89C540.026 489.282 541.497 488.185 542.562 486.738C543.628 485.291 544.239 483.559 544.319 481.763C544.399 479.967 543.944 478.187 543.012 476.651C542.079 475.115 540.711 473.891 539.083 473.135C537.454 472.379 535.637 472.126 533.864 472.408C531.516 472.78 529.409 474.063 527.998 475.98C526.587 477.896 525.986 480.292 526.324 482.648Z" fill="#121214" stroke="#121214" stroke-width="0.786164" stroke-miterlimit="10" stroke-linecap="round"/>
<path d="M536.292 479.909L563.309 475.685C563.937 475.56 564.495 475.205 564.873 474.688C565.252 474.171 565.423 473.531 565.354 472.894C565.224 472.27 564.866 471.717 564.351 471.343C563.836 470.969 563.2 470.801 562.568 470.871L535.525 475.07C534.902 475.2 534.35 475.558 533.977 476.074C533.603 476.59 533.435 477.227 533.506 477.861C533.63 478.489 533.985 479.049 534.501 479.428C535.017 479.807 535.656 479.979 536.292 479.909Z" fill="#F8F8F8" stroke="#121214" stroke-width="0.786164" stroke-miterlimit="10" stroke-linecap="round"/>
<path d="M537.238 486.514L564.408 482.29C565.031 482.16 565.583 481.802 565.957 481.286C566.33 480.77 566.498 480.133 566.427 479.499C566.298 478.875 565.94 478.322 565.425 477.948C564.91 477.574 564.274 477.406 563.641 477.477L536.625 481.675C535.997 481.8 535.439 482.155 535.06 482.672C534.681 483.189 534.51 483.829 534.58 484.466C534.702 485.071 535.038 485.611 535.527 485.988C536.015 486.364 536.623 486.551 537.238 486.514Z" fill="#F8F8F8" stroke="#121214" stroke-width="0.786164" stroke-miterlimit="10" stroke-linecap="round"/>
<path d="M530.924 512.193C531.199 513.959 531.989 515.604 533.195 516.922C534.401 518.239 535.968 519.17 537.701 519.597C539.434 520.025 541.254 519.929 542.932 519.323C544.611 518.718 546.073 517.628 547.135 516.192C548.197 514.756 548.812 513.037 548.901 511.252C548.991 509.467 548.552 507.695 547.638 506.16C546.725 504.624 545.379 503.393 543.77 502.622C542.16 501.85 540.359 501.573 538.592 501.824C537.406 501.993 536.264 502.396 535.235 503.01C534.205 503.625 533.307 504.438 532.594 505.403C531.88 506.367 531.366 507.464 531.079 508.63C530.792 509.796 530.74 511.007 530.924 512.193Z" fill="#121214" stroke="#121214" stroke-width="0.786164" stroke-miterlimit="10" stroke-linecap="round"/>
<path d="M540.79 509.377L567.832 505.152C568.455 505.023 569.008 504.665 569.381 504.148C569.755 503.632 569.922 502.995 569.852 502.362C569.71 501.727 569.333 501.171 568.797 500.804C568.26 500.438 567.605 500.29 566.963 500.391L539.947 504.589C539.319 504.714 538.761 505.069 538.382 505.586C538.004 506.103 537.832 506.743 537.902 507.38C538.038 508.019 538.413 508.582 538.95 508.953C539.487 509.325 540.145 509.476 540.79 509.377Z" fill="#F8F8F8" stroke="#121214" stroke-width="0.786164" stroke-miterlimit="10" stroke-linecap="round"/>
<path d="M541.838 516.033L568.855 511.835C569.482 511.71 570.041 511.355 570.419 510.838C570.798 510.321 570.969 509.681 570.9 509.044C570.775 508.415 570.42 507.856 569.904 507.477C569.389 507.098 568.75 506.926 568.114 506.996L541.071 511.22C540.448 511.35 539.896 511.708 539.523 512.224C539.149 512.74 538.981 513.377 539.052 514.011C539.182 514.635 539.539 515.188 540.054 515.562C540.57 515.936 541.206 516.104 541.838 516.033Z" fill="#F8F8F8" stroke="#121214" stroke-width="0.786164" stroke-miterlimit="10" stroke-linecap="round"/>
<path d="M535.499 541.712C535.755 543.492 536.533 545.155 537.735 546.491C538.937 547.826 540.508 548.774 542.249 549.212C543.99 549.651 545.822 549.561 547.511 548.953C549.201 548.346 550.672 547.249 551.737 545.802C552.803 544.355 553.415 542.623 553.495 540.827C553.575 539.031 553.119 537.251 552.187 535.715C551.254 534.178 549.887 532.954 548.258 532.199C546.629 531.443 544.812 531.19 543.039 531.471C540.692 531.844 538.584 533.127 537.173 535.043C535.763 536.96 535.161 539.355 535.499 541.712Z" fill="#121214" stroke="#121214" stroke-width="0.786164" stroke-miterlimit="10" stroke-linecap="round"/>
<path d="M545.391 538.793L572.408 534.595C573.036 534.47 573.594 534.115 573.972 533.598C574.351 533.081 574.522 532.441 574.453 531.804C574.406 531.486 574.297 531.181 574.131 530.906C573.964 530.631 573.745 530.393 573.485 530.204C573.226 530.016 572.931 529.881 572.619 529.809C572.306 529.736 571.983 529.727 571.667 529.781L544.624 533.98C544.001 534.11 543.449 534.468 543.076 534.984C542.702 535.5 542.535 536.137 542.605 536.771C542.652 537.089 542.761 537.394 542.927 537.669C543.093 537.943 543.313 538.182 543.572 538.37C543.832 538.559 544.127 538.693 544.439 538.766C544.751 538.839 545.075 538.848 545.391 538.793Z" fill="#F8F8F8" stroke="#121214" stroke-width="0.786164" stroke-miterlimit="10" stroke-linecap="round"/>
<path d="M546.516 545.578L573.456 541.354C574.079 541.224 574.632 540.866 575.005 540.35C575.378 539.833 575.546 539.196 575.476 538.563C575.351 537.934 574.996 537.375 574.481 536.996C573.965 536.617 573.326 536.445 572.69 536.515L545.673 540.739C545.045 540.863 544.487 541.219 544.108 541.736C543.73 542.252 543.558 542.893 543.628 543.53C543.753 544.178 544.123 544.754 544.661 545.135C545.199 545.517 545.864 545.676 546.516 545.578Z" fill="#F8F8F8" stroke="#121214" stroke-width="0.786164" stroke-miterlimit="10" stroke-linecap="round"/>
<path d="M540.1 571.257C540.356 573.036 541.134 574.7 542.336 576.035C543.538 577.371 545.109 578.318 546.85 578.757C548.591 579.195 550.423 579.105 552.112 578.498C553.802 577.891 555.273 576.794 556.339 575.347C557.404 573.899 558.016 572.168 558.096 570.371C558.176 568.575 557.721 566.796 556.788 565.259C555.856 563.723 554.488 562.499 552.859 561.743C551.23 560.988 549.414 560.734 547.641 561.016C545.293 561.388 543.185 562.672 541.775 564.588C540.364 566.504 539.762 568.9 540.1 571.257Z" fill="#121214" stroke="#121214" stroke-width="0.786164" stroke-miterlimit="10" stroke-linecap="round"/>
<path d="M549.966 568.44L577.009 564.242C577.632 564.112 578.184 563.754 578.557 563.238C578.931 562.722 579.098 562.085 579.028 561.451C578.904 560.822 578.549 560.263 578.033 559.884C577.517 559.505 576.878 559.333 576.242 559.403L549.225 563.627C548.597 563.752 548.039 564.107 547.66 564.624C547.282 565.141 547.111 565.781 547.18 566.418C547.31 567.042 547.667 567.595 548.183 567.969C548.698 568.343 549.334 568.511 549.966 568.44Z" fill="#F8F8F8" stroke="#121214" stroke-width="0.786164" stroke-miterlimit="10" stroke-linecap="round"/>
<path d="M551.014 575.123L578.031 570.898C578.654 570.774 579.208 570.422 579.586 569.911C579.964 569.4 580.139 568.766 580.076 568.133C579.952 567.504 579.596 566.945 579.081 566.566C578.565 566.187 577.926 566.015 577.29 566.085L550.247 570.309C549.624 570.439 549.072 570.797 548.699 571.313C548.325 571.829 548.158 572.467 548.228 573.1C548.358 573.724 548.715 574.277 549.231 574.651C549.746 575.025 550.382 575.193 551.014 575.123Z" fill="#F8F8F8" stroke="#121214" stroke-width="0.786164" stroke-miterlimit="10" stroke-linecap="round"/>
<path d="M544.676 600.801C544.927 602.577 545.698 604.238 546.892 605.575C548.086 606.911 549.649 607.863 551.384 608.309C553.118 608.755 554.945 608.676 556.634 608.081C558.324 607.487 559.799 606.403 560.873 604.969C561.947 603.534 562.573 601.812 562.67 600.021C562.766 598.23 562.331 596.451 561.417 594.908C560.504 593.366 559.155 592.129 557.539 591.355C555.924 590.581 554.116 590.305 552.344 590.56C549.972 590.903 547.834 592.173 546.396 594.093C544.959 596.013 544.34 598.425 544.676 600.801Z" fill="#121214" stroke="#121214" stroke-width="0.786164" stroke-miterlimit="10" stroke-linecap="round"/>
<path d="M554.567 597.985L581.584 593.786C582.211 593.662 582.77 593.306 583.148 592.79C583.527 592.273 583.698 591.633 583.628 590.996C583.504 590.367 583.149 589.808 582.633 589.429C582.118 589.049 581.478 588.878 580.842 588.948L553.8 593.172C553.177 593.302 552.625 593.66 552.252 594.176C551.878 594.692 551.71 595.329 551.781 595.963C551.911 596.587 552.268 597.14 552.783 597.514C553.299 597.888 553.935 598.056 554.567 597.985Z" fill="#F8F8F8" stroke="#121214" stroke-width="0.786164" stroke-miterlimit="10" stroke-linecap="round"/>
<path d="M555.59 604.667L582.632 600.443C583.255 600.313 583.807 599.955 584.181 599.439C584.554 598.923 584.722 598.286 584.651 597.652C584.605 597.337 584.496 597.034 584.331 596.761C584.167 596.488 583.95 596.251 583.693 596.063C583.436 595.875 583.145 595.74 582.835 595.665C582.526 595.591 582.205 595.579 581.891 595.63L554.849 599.854C554.532 599.897 554.228 600.004 553.954 600.168C553.68 600.332 553.441 600.549 553.253 600.807C553.064 601.065 552.93 601.359 552.857 601.67C552.784 601.981 552.775 602.304 552.829 602.619C552.953 603.243 553.304 603.798 553.815 604.177C554.325 604.555 554.958 604.73 555.59 604.667Z" fill="#F8F8F8" stroke="#121214" stroke-width="0.786164" stroke-miterlimit="10" stroke-linecap="round"/>
<g opacity="0.3">
<path d="M158.211 99.7461L164.934 98.722" stroke="#121214" stroke-width="0.786164" stroke-miterlimit="10" stroke-linecap="round"/>
<path d="M171.656 97.6723L178.378 96.6226" stroke="#121214" stroke-width="0.786164" stroke-miterlimit="10" stroke-linecap="round"/>
<path d="M92.5225 119.485L99.2191 118.435" stroke="#121214" stroke-width="0.786164" stroke-miterlimit="10" stroke-linecap="round"/>
<path d="M105.941 117.386L112.664 116.336" stroke="#121214" stroke-width="0.786164" stroke-miterlimit="10" stroke-linecap="round"/>
<path d="M119.386 115.312L126.082 114.262" stroke="#121214" stroke-width="0.786164" stroke-miterlimit="10" stroke-linecap="round"/>
<path d="M132.805 113.213L139.527 112.163" stroke="#121214" stroke-width="0.786164" stroke-miterlimit="10" stroke-linecap="round"/>
<path d="M146.224 111.113L152.946 110.064" stroke="#121214" stroke-width="0.786164" stroke-miterlimit="10" stroke-linecap="round"/>
<path d="M159.668 109.014L166.365 107.964" stroke="#121214" stroke-width="0.786164" stroke-miterlimit="10" stroke-linecap="round"/>
<path d="M173.087 106.915L179.809 105.891" stroke="#121214" stroke-width="0.786164" stroke-miterlimit="10" stroke-linecap="round"/>
<path d="M93.9536 128.753L100.676 127.703" stroke="#121214" stroke-width="0.786164" stroke-miterlimit="10" stroke-linecap="round"/>
<path d="M107.373 126.654L114.095 125.604" stroke="#121214" stroke-width="0.786164" stroke-miterlimit="10" stroke-linecap="round"/>
<path d="M120.817 124.554L127.539 123.53" stroke="#121214" stroke-width="0.786164" stroke-miterlimit="10" stroke-linecap="round"/>
<path d="M134.236 122.481L140.959 121.431" stroke="#121214" stroke-width="0.786164" stroke-miterlimit="10" stroke-linecap="round"/>
<path d="M147.681 120.381L154.377 119.332" stroke="#121214" stroke-width="0.786164" stroke-miterlimit="10" stroke-linecap="round"/>
<path d="M161.099 118.282L167.821 117.232" stroke="#121214" stroke-width="0.786164" stroke-miterlimit="10" stroke-linecap="round"/>
<path d="M174.518 116.182L181.24 115.133" stroke="#121214" stroke-width="0.786164" stroke-miterlimit="10" stroke-linecap="round"/>
<path d="M95.3853 138.021L102.108 136.971" stroke="#121214" stroke-width="0.786164" stroke-miterlimit="10" stroke-linecap="round"/>
<path d="M108.83 135.922L115.526 134.872" stroke="#121214" stroke-width="0.786164" stroke-miterlimit="10" stroke-linecap="round"/>
<path d="M122.249 133.822L128.971 132.773" stroke="#121214" stroke-width="0.786164" stroke-miterlimit="10" stroke-linecap="round"/>
<path d="M135.693 131.748L142.39 130.699" stroke="#121214" stroke-width="0.786164" stroke-miterlimit="10" stroke-linecap="round"/>
<path d="M149.112 129.649L155.834 128.599" stroke="#121214" stroke-width="0.786164" stroke-miterlimit="10" stroke-linecap="round"/>
<path d="M162.531 127.55L169.253 126.5" stroke="#121214" stroke-width="0.786164" stroke-miterlimit="10" stroke-linecap="round"/>
<path d="M175.975 125.45L182.672 124.401" stroke="#121214" stroke-width="0.786164" stroke-miterlimit="10" stroke-linecap="round"/>
<path d="M96.8418 147.289L103.538 146.239" stroke="#121214" stroke-width="0.786164" stroke-miterlimit="10" stroke-linecap="round"/>
<path d="M110.261 145.189L116.983 144.14" stroke="#121214" stroke-width="0.786164" stroke-miterlimit="10" stroke-linecap="round"/>
<path d="M123.68 143.09L130.402 142.04" stroke="#121214" stroke-width="0.786164" stroke-miterlimit="10" stroke-linecap="round"/>
<path d="M137.125 140.991L143.847 139.967" stroke="#121214" stroke-width="0.786164" stroke-miterlimit="10" stroke-linecap="round"/>
<path d="M150.543 138.917L157.265 137.867" stroke="#121214" stroke-width="0.786164" stroke-miterlimit="10" stroke-linecap="round"/>
<path d="M163.988 136.818L170.684 135.768" stroke="#121214" stroke-width="0.786164" stroke-miterlimit="10" stroke-linecap="round"/>
<path d="M177.407 134.718L184.129 133.669" stroke="#121214" stroke-width="0.786164" stroke-miterlimit="10" stroke-linecap="round"/>
<path d="M89.1738 98.0563L95.896 97.0066" stroke="#121214" stroke-width="0.786164" stroke-miterlimit="10" stroke-linecap="round"/>
<path d="M102.618 95.9569L109.34 94.9328" stroke="#121214" stroke-width="0.786164" stroke-miterlimit="10" stroke-linecap="round"/>
<path d="M116.038 93.8832L122.76 92.8336" stroke="#121214" stroke-width="0.786164" stroke-miterlimit="10" stroke-linecap="round"/>
<path d="M129.482 91.7839L136.179 90.7343" stroke="#121214" stroke-width="0.786164" stroke-miterlimit="10" stroke-linecap="round"/>
<path d="M142.901 89.6845L149.623 88.6349" stroke="#121214" stroke-width="0.786164" stroke-miterlimit="10" stroke-linecap="round"/>
<path d="M156.345 87.5851L163.042 86.561" stroke="#121214" stroke-width="0.786164" stroke-miterlimit="10" stroke-linecap="round"/>
<path d="M169.764 85.5114L176.486 84.4617" stroke="#121214" stroke-width="0.786164" stroke-miterlimit="10" stroke-linecap="round"/>
<path d="M177.866 89.5821L89.4292 103.356" stroke="#121214" stroke-width="0.786164" stroke-miterlimit="10" stroke-linecap="round"/>
<path d="M113.967 82.3368L148.09 77.0116" stroke="#121214" stroke-width="0.786164" stroke-miterlimit="10" stroke-linecap="round"/>
<path d="M71.5889 177.883L447.906 119.229" stroke="#121214" stroke-width="0.786164" stroke-miterlimit="10" stroke-linecap="round"/>
<path d="M76.3174 208.247L452.609 149.593" stroke="#121214" stroke-width="0.786164" stroke-miterlimit="10" stroke-linecap="round"/>
<path d="M81.0205 238.585L457.338 179.931" stroke="#121214" stroke-width="0.786164" stroke-miterlimit="10" stroke-linecap="round"/>
<path d="M85.749 268.949L462.041 210.295" stroke="#121214" stroke-width="0.786164" stroke-miterlimit="10" stroke-linecap="round"/>
<path d="M90.4521 299.313L466.769 240.659" stroke="#121214" stroke-width="0.786164" stroke-miterlimit="10" stroke-linecap="round"/>
<path d="M95.1807 329.677L471.472 270.997" stroke="#121214" stroke-width="0.786164" stroke-miterlimit="10" stroke-linecap="round"/>
<path d="M99.8833 360.015L476.201 301.361" stroke="#121214" stroke-width="0.786164" stroke-miterlimit="10" stroke-linecap="round"/>
<path d="M104.612 390.379L480.904 331.725" stroke="#121214" stroke-width="0.786164" stroke-miterlimit="10" stroke-linecap="round"/>
<path d="M109.315 420.743L485.632 362.089" stroke="#121214" stroke-width="0.786164" stroke-miterlimit="10" stroke-linecap="round"/>
<path d="M114.043 451.107L490.335 392.427" stroke="#121214" stroke-width="0.786164" stroke-miterlimit="10" stroke-linecap="round"/>
<path d="M118.747 481.445L495.064 422.791" stroke="#121214" stroke-width="0.786164" stroke-miterlimit="10" stroke-linecap="round"/>
<path d="M123.475 511.809L499.792 453.155" stroke="#121214" stroke-width="0.786164" stroke-miterlimit="10" stroke-linecap="round"/>
<path d="M128.178 542.173L504.496 483.519" stroke="#121214" stroke-width="0.786164" stroke-miterlimit="10" stroke-linecap="round"/>
<path d="M139.399 614.268L515.691 555.614" stroke="#121214" stroke-width="0.786164" stroke-miterlimit="10" stroke-linecap="round"/>
<path d="M143.13 638.308L519.422 579.628" stroke="#121214" stroke-width="0.786164" stroke-miterlimit="10" stroke-linecap="round"/>
<path d="M146.863 662.323L523.155 603.669" stroke="#121214" stroke-width="0.786164" stroke-miterlimit="10" stroke-linecap="round"/>
</g>
</svg>
