<svg width="225" height="305" viewBox="0 0 225 305" fill="none" xmlns="http://www.w3.org/2000/svg">
<path d="M198.615 253.996C196.052 254.728 193.335 254.728 190.772 253.995C188.209 253.262 185.903 251.826 184.115 249.849L5.05497 46.9593C1.26571 42.7886 3.014 37.0664 7.18483 33.2772C11.3557 29.488 16.3742 29.123 20.1601 33.2754L205.28 230.752C206.539 232.139 207.512 233.761 208.143 235.525C208.774 237.288 209.052 239.159 208.959 241.03C208.867 242.9 208.407 244.735 207.605 246.427C206.803 248.12 205.675 249.638 204.286 250.895C202.661 252.354 200.72 253.416 198.615 253.996Z" fill="white"/>
<path d="M197.39 255.235C194.837 255.717 192.204 255.533 189.743 254.7C187.282 253.867 185.078 252.413 183.344 250.479L4.26602 47.5923C3.30494 46.5652 2.60874 45.3194 2.23771 43.9626C1.86668 42.6058 1.832 41.179 2.13669 39.8058C2.78098 37.0069 4.30306 34.4871 6.48075 32.6143C8.4268 30.7093 10.997 29.5736 13.7158 29.4175C15.0574 29.4152 16.383 29.7078 17.5989 30.2746C18.8148 30.8413 19.8912 31.6685 20.752 32.6973L205.869 230.156C207.601 232.071 208.818 234.395 209.403 236.91C209.989 239.425 209.925 242.047 209.217 244.53C208.51 247.014 207.182 249.276 205.358 251.104C203.534 252.932 201.276 254.266 198.794 254.98C198.368 255.02 197.882 255.146 197.39 255.235ZM12.7193 31.2933C10.8689 31.6897 9.16741 32.5991 7.8096 33.9172C5.92571 35.5245 4.60373 37.6909 4.03592 40.1013C3.79111 41.1926 3.81703 42.3273 4.11141 43.4063C4.40579 44.4853 4.95969 45.4759 5.72482 46.2917L184.803 249.178C186.468 251.031 188.623 252.377 191.019 253.062C193.415 253.746 195.955 253.74 198.349 253.046C200.54 252.428 202.537 251.26 204.149 249.652C205.761 248.044 206.934 246.05 207.558 243.861C208.182 241.671 208.235 239.358 207.712 237.142C207.189 234.926 206.108 232.881 204.571 231.201L19.4773 33.8704C18.7926 33.0271 17.9309 32.3447 16.9533 31.8714C15.9757 31.398 14.9059 31.1453 13.8198 31.1312C13.4493 31.1565 13.0814 31.2108 12.7193 31.2933Z" fill="#121214"/>
<path d="M223.708 272.189L206.949 232.785L206.838 232.899C206.658 232.634 206.461 232.38 206.248 232.14C202.305 227.639 194.343 228.181 188.479 233.332C182.616 238.483 181.081 246.313 185.043 250.811C186.04 251.932 187.309 252.778 188.728 253.268L223.708 272.189Z" fill="white"/>
<path d="M223.873 273.101C223.667 273.135 223.455 273.101 223.271 273.003L188.291 254.081C186.773 253.542 185.416 252.629 184.344 251.427C183.283 250.156 182.533 248.655 182.155 247.042C181.778 245.43 181.782 243.752 182.169 242.142C183.032 238.458 185.022 235.134 187.862 232.633C190.703 230.133 194.252 228.58 198.016 228.192C199.661 228.013 201.325 228.221 202.876 228.799C204.426 229.378 205.819 230.311 206.945 231.523C207.088 231.686 207.212 231.852 207.336 232.017C207.539 232.087 207.707 232.232 207.805 232.422L224.564 271.826C224.633 272.004 224.647 272.199 224.604 272.385C224.56 272.571 224.461 272.74 224.32 272.869C224.195 272.986 224.04 273.066 223.873 273.101ZM196.69 230.221C193.862 230.784 191.238 232.099 189.095 234.03C186.519 236.221 184.725 239.191 183.983 242.491C183.655 243.823 183.644 245.213 183.949 246.551C184.254 247.888 184.867 249.136 185.74 250.194C186.629 251.199 187.766 251.954 189.037 252.383L221.803 270.105L206.29 233.62C206.205 233.573 206.129 233.51 206.068 233.434C205.912 233.199 205.738 232.967 205.568 232.753C204.625 231.755 203.464 230.99 202.176 230.518C200.888 230.046 199.507 229.88 198.143 230.033C197.663 230.083 197.182 230.132 196.69 230.221Z" fill="#121214"/>
<path d="M223.708 272.189L213.435 248.593C211.996 248.268 210.497 248.319 209.082 248.74C207.668 249.162 206.386 249.94 205.36 251.001C204.082 252.036 203.071 253.362 202.411 254.868C201.751 256.373 201.46 258.015 201.564 259.656L223.708 272.189Z" fill="white"/>
<path d="M223.873 273.101C223.658 273.143 223.436 273.102 223.25 272.988L201.161 260.445C201.033 260.372 200.925 260.27 200.843 260.147C200.762 260.025 200.711 259.885 200.693 259.739C200.582 257.952 200.896 256.164 201.609 254.523C202.323 252.881 203.415 251.431 204.798 250.293C205.939 249.127 207.36 248.274 208.925 247.815C210.491 247.356 212.148 247.307 213.738 247.672C213.882 247.706 214.016 247.772 214.131 247.866C214.246 247.959 214.338 248.077 214.401 248.211L224.597 271.802C224.651 271.929 224.676 272.068 224.67 272.206C224.665 272.345 224.629 272.48 224.565 272.603C224.501 272.726 224.41 272.834 224.3 272.918C224.19 273.002 224.063 273.061 223.927 273.091L223.873 273.101ZM202.493 259.073L221.747 270.003L212.828 249.401C211.591 249.205 210.325 249.311 209.139 249.71C207.952 250.109 206.879 250.789 206.012 251.693C204.921 252.59 204.041 253.717 203.433 254.992C202.825 256.267 202.504 257.66 202.493 259.073Z" fill="#121214"/>
</svg>
