<svg width="176" height="196" viewBox="0 0 176 196" fill="none" xmlns="http://www.w3.org/2000/svg">
<path d="M88.12 1C74.8 13.67 40.73 26.47 1 53.62C1 53.62 3.48001 145.36 88.12 195.51V1Z" fill="white" stroke="#121214" stroke-linecap="round" stroke-linejoin="round"/>
<path d="M88.1201 1C101.43 13.67 135.51 26.47 175.24 53.62C175.24 53.62 172.76 145.36 88.1201 195.51V1Z" fill="#121214" stroke="#121214" stroke-linecap="round" stroke-linejoin="round"/>
<path d="M88.1201 8.81006C72.0501 20.2001 44.2001 31.0601 7.39014 56.2101C7.39014 56.2101 9.69015 141.21 88.1201 187.7C166.55 141.23 168.85 56.2101 168.85 56.2101C132.03 31.0701 104.31 20.2001 88.1201 8.81006Z" fill="#121214" stroke="#121214" stroke-linecap="round" stroke-linejoin="round"/>
<path d="M155.09 47.1802C98.9299 64.1802 56.0899 113.53 36.6099 139.56C50.0096 159.218 67.6019 175.659 88.1199 187.7C166.55 141.23 168.85 56.2102 168.85 56.2102C164.11 52.9835 159.523 49.9735 155.09 47.1802Z" fill="white" stroke="#121214" stroke-linecap="round" stroke-linejoin="round"/>
<path d="M118.7 94.5198H58.4902C57.1642 94.5198 55.8924 93.993 54.9547 93.0553C54.017 92.1176 53.4902 90.8459 53.4902 89.5198V61.1798C53.6456 51.9772 57.4104 43.2041 63.9732 36.7512C70.536 30.2983 79.3714 26.6821 88.5752 26.6821C97.7791 26.6821 106.614 30.2983 113.177 36.7512C119.74 43.2041 123.505 51.9772 123.66 61.1798V89.5198C123.66 90.839 123.139 92.1047 122.21 93.0412C121.281 93.9778 120.019 94.5092 118.7 94.5198ZM63.5302 84.5198H113.7V61.1798C113.569 54.6136 110.869 48.3605 106.179 43.7631C101.488 39.1658 95.1828 36.5907 88.6152 36.5907C82.0477 36.5907 75.742 39.1658 71.0519 43.7631C66.3618 48.3605 63.6613 54.6136 63.5302 61.1798V84.5198Z" fill="white" stroke="#121214" stroke-linecap="round" stroke-linejoin="round"/>
<path d="M126.42 80.8599H49.8198V145.59H126.42V80.8599Z" fill="white" stroke="#121214" stroke-linecap="round" stroke-linejoin="round"/>
<path d="M96.0804 107.74C96.0804 106.266 95.6896 104.818 94.9479 103.544C94.2062 102.27 93.1401 101.215 91.8581 100.487C90.5762 99.7595 89.1242 99.3844 87.6501 99.4004C86.176 99.4163 84.7325 99.8227 83.4666 100.578C82.2007 101.334 81.1577 102.411 80.4437 103.701C79.7298 104.991 79.3705 106.446 79.4023 107.92C79.4342 109.394 79.8562 110.833 80.6253 112.091C81.3943 113.348 82.483 114.38 83.7804 115.08L82.3804 129.78H93.1004L91.7004 115.08C93.0262 114.367 94.1337 113.308 94.905 112.015C95.6764 110.723 96.0826 109.245 96.0804 107.74Z" fill="#121214" stroke="#121214" stroke-linecap="round" stroke-linejoin="round"/>
</svg>
