<svg width="1920" height="441" viewBox="0 0 1920 441" fill="none" xmlns="http://www.w3.org/2000/svg">
<path opacity="0.1" d="M1920 440.667V336.65C1853.98 324.28 1761.57 312.664 1631.94 303.965C1139.58 270.55 1140.39 267.105 966.741 182.625C793.096 98.1454 598.941 92.7145 365.149 78.1568C219.043 69.0551 82.2709 29.2791 0 0.666473V213.727C59.4563 214.406 140.46 216.694 200.607 223.633C307.421 236.004 240.13 281.462 437.856 311.13C635.583 340.799 720.734 282.719 854.396 353.521C912.7 384.397 963.514 415.348 1011.68 440.667H1920Z" fill="url(#paint0_linear_79_309)"/>
<path opacity="0.1" d="M0 440.667V336.65C66.0242 324.28 158.435 312.664 288.063 303.965C780.421 270.55 779.615 267.105 953.259 182.625C1126.9 98.1454 1321.06 92.7145 1554.85 78.1568C1700.96 69.0551 1837.73 29.2791 1920 0.666473V213.727C1860.54 214.406 1779.54 216.694 1719.39 223.633C1612.58 236.004 1679.87 281.462 1482.14 311.13C1284.42 340.799 1199.27 282.719 1065.6 353.521C1007.3 384.397 956.486 415.348 908.322 440.667H0Z" fill="url(#paint1_linear_79_309)"/>
<defs>
<linearGradient id="paint0_linear_79_309" x1="972.5" y1="333.5" x2="-3.21218e-05" y2="0.666598" gradientUnits="userSpaceOnUse">
<stop stop-color="#121214" stop-opacity="0"/>
<stop offset="1" stop-color="#121214"/>
</linearGradient>
<linearGradient id="paint1_linear_79_309" x1="947.5" y1="333.5" x2="1920" y2="0.666598" gradientUnits="userSpaceOnUse">
<stop stop-color="#121214" stop-opacity="0"/>
<stop offset="1" stop-color="#121214"/>
</linearGradient>
</defs>
</svg>
