<svg width="600" height="200" viewBox="0 0 600 200" fill="none" xmlns="http://www.w3.org/2000/svg">
<path d="M133.426 21.538C137.655 21.5741 141.666 21.559 145.457 21.4928C150.393 21.4026 154.315 21.7275 157.224 22.4677C163.963 24.1828 169.572 27.7003 174.05 33.02C177.351 36.9497 179.479 42.453 180.433 49.53C181.708 59.0082 180.832 67.8544 177.805 76.0688C176.04 80.853 173.331 86.3202 169.677 92.4705C149.311 126.745 120.316 157.463 87.4283 182.251C80.9829 187.107 76.8319 190.137 74.9754 191.341C63.2186 198.987 48.9614 200.395 34.92 199.916C29.8081 199.736 26.2879 197.47 24.3595 193.119C23.1534 190.393 23.7123 186.755 23.5848 183.767C23.5652 183.22 23.2547 182.937 22.6533 182.919C17.1949 182.775 11.9196 182.531 6.82726 182.188C4.82694 182.052 3.3071 182.441 1.8853 180.807C1.32312 180.157 1.03549 179.188 1.02241 177.9C0.970118 173.17 1.00933 168.28 1.14007 163.232C1.48653 149.445 1.69572 135.778 1.76762 122.232C1.77743 120.273 2.16966 118.359 2.13044 116.364C1.93433 106.715 2.38537 97.1283 2.44421 87.7224C2.47362 81.4217 2.7776 75.0849 2.73837 68.8564C2.69915 60.3441 3.22864 51.6965 3.20903 43.2835C3.2025 39.3117 3.27768 34.6659 3.43457 29.3461C3.6176 23.226 3.67643 17.3706 3.61106 11.78C3.53262 5.3078 7.092 -0.0180078 14.7011 4.57641e-05C23.3953 0.0241172 31.6449 0.0421755 39.4501 0.0542112C41.8917 0.0542112 44.3627 0.40625 46.7944 0.415277C75.2892 0.517581 102.539 0.755287 128.543 1.12839C129.53 1.14208 130.473 1.50676 131.175 2.14611C131.877 2.78546 132.283 3.64993 132.308 4.55858L132.808 20.9783C132.815 21.3454 133.021 21.532 133.426 21.538ZM31.1841 21.7636C34.7533 20.0215 38.7245 20.8158 42.529 20.8068C54.4786 20.7827 66.7322 20.8279 79.2898 20.9422C80.9175 20.9603 82.6334 20.9873 84.4377 21.0234C97.5966 21.3003 110.723 21.3514 123.816 21.1769C123.952 21.1747 124.081 21.1248 124.178 21.0375C124.275 20.9502 124.331 20.8321 124.336 20.7075C124.473 16.9945 124.379 13.2213 124.052 9.38791C124.019 8.96064 123.771 8.76205 123.307 8.79214C120.953 8.95463 118.571 8.51231 116.305 8.53037C106.52 8.6086 96.7076 8.53939 86.8694 8.32275C76.3579 8.08805 66.0524 8.2054 56.2469 8.01584C49.6903 7.89548 43.1664 7.82326 36.6752 7.79919C29.6479 7.77512 22.2349 7.74804 14.4363 7.71795C12.0634 7.70893 11.9065 9.85731 11.8967 11.5002C11.8052 23.9511 11.6287 36.8173 11.3672 50.0987C11.0796 64.5777 10.8965 78.0427 10.8181 90.4936C10.8083 92.4615 10.3474 94.3842 10.3965 96.352C10.6122 105.812 10.0925 115.119 10.1415 124.498C10.1677 128.794 10.1186 133.112 9.99444 137.451C9.80487 144.233 9.63162 150.997 9.47473 157.743C9.33092 164.038 9.32766 169.529 9.46493 174.217C9.47147 174.494 9.62509 174.641 9.92579 174.659L23.5946 175.454C23.6357 175.456 23.6769 175.451 23.7156 175.438C23.7543 175.425 23.7895 175.404 23.8191 175.378C23.8487 175.352 23.8719 175.32 23.8873 175.285C23.9027 175.25 23.9099 175.212 23.9084 175.174C23.9019 164.191 23.915 153.215 23.9476 142.244C23.9476 140.538 24.2712 138.534 24.2712 136.666C24.2778 125.322 24.2908 113.464 24.3104 101.091C24.3104 98.9246 24.683 96.6048 24.6732 94.5647C24.634 84.4968 24.6307 74.4079 24.6634 64.2979C24.6929 56.6702 25.2616 42.8412 24.9772 31.9278C24.853 27.2279 26.922 23.8398 31.1841 21.7636ZM159.41 31.5035C153.164 28.4976 147.173 29.4906 140.809 29.1566C137.221 28.964 133.7 28.8707 130.249 28.8768C118.901 28.9068 107.409 28.9008 95.7728 28.8587C94.0176 28.8587 92.2036 28.5428 90.468 28.5518C74.1975 28.6842 56.3188 28.5668 36.832 28.1997C34.665 28.1636 33.2628 29.5628 33.3609 31.5577C33.7237 38.9687 32.9883 46.0999 32.9785 53.2039C32.9589 64.5416 32.9 76.5924 32.802 89.1486C32.7039 101.786 32.6091 114.424 32.5176 127.061C32.498 129.167 32.4784 131.274 32.4588 133.38C32.3542 145.476 32.2954 157.144 32.2823 168.386C32.2725 171.112 31.8018 173.802 32.0273 176.501C32.4 180.951 31.743 185.311 32.0666 189.933C32.1084 190.532 32.3938 191.096 32.8662 191.511C33.3386 191.925 33.9633 192.161 34.616 192.171C42.0093 192.271 49.2262 192.514 56.3449 190.709C73.7399 186.268 85.0554 174.849 89.5659 158.826C93.998 143.039 94.5569 128.036 91.2132 112.465C90.9452 111.219 91.0367 110.04 91.4878 108.926C93.0076 105.18 97.1946 105.794 100.509 106.724C129.759 114.857 159.165 100.504 169.549 74.453C172.916 66.01 173.583 56.8658 171.55 47.0206C170.066 39.8654 166.019 34.693 159.41 31.5035Z" fill="black"/>
<path d="M31.1841 21.7637C26.922 23.8398 24.853 27.2279 24.9772 31.9278C25.2616 42.8412 24.6929 56.6703 24.6634 64.2979C24.6308 74.4079 24.634 84.4968 24.6732 94.5647C24.6831 96.6048 24.3104 98.9247 24.3104 101.091C24.2908 113.464 24.2778 125.322 24.2712 136.666C24.2712 138.534 23.9476 140.538 23.9476 142.244C23.915 153.215 23.9019 164.191 23.9084 175.174C23.9099 175.212 23.9027 175.25 23.8873 175.285C23.8719 175.32 23.8487 175.352 23.8191 175.378C23.7895 175.404 23.7543 175.425 23.7156 175.438C23.677 175.451 23.6357 175.456 23.5947 175.454L9.9258 174.659C9.6251 174.641 9.47148 174.494 9.46495 174.217C9.32767 169.529 9.33093 164.038 9.47475 157.743C9.63163 150.997 9.80488 144.233 9.99445 137.451C10.1187 133.112 10.1677 128.794 10.1415 124.498C10.0925 115.119 10.6122 105.812 10.3965 96.352C10.3474 94.3842 10.8083 92.4615 10.8181 90.4936C10.8966 78.0427 11.0796 64.5777 11.3672 50.0988C11.6287 36.8173 11.8052 23.9512 11.8967 11.5002C11.9065 9.85734 12.0634 7.70896 14.4363 7.71798C22.235 7.74807 29.6479 7.77515 36.6752 7.79922C43.1664 7.82329 49.6903 7.89551 56.2469 8.01587C66.0524 8.20543 76.358 8.08808 86.8694 8.32278C96.7076 8.53942 106.52 8.60863 116.305 8.5304C118.571 8.51234 120.953 8.95466 123.307 8.79218C123.771 8.76209 124.019 8.96067 124.052 9.38794C124.379 13.2213 124.473 16.9945 124.336 20.7075C124.331 20.8321 124.275 20.9502 124.178 21.0375C124.081 21.1248 123.952 21.1747 123.816 21.1769C110.723 21.3514 97.5966 21.3003 84.4377 21.0235C82.6335 20.9874 80.9175 20.9603 79.2898 20.9422C66.7322 20.8279 54.4787 20.7828 42.529 20.8068C38.7245 20.8159 34.7533 20.0215 31.1841 21.7637Z" fill="white"/>
<path d="M159.41 31.5036C166.019 34.693 170.066 39.8654 171.55 47.0206C173.583 56.8659 172.916 66.01 169.549 74.4531C159.165 100.504 129.759 114.857 100.509 106.724C97.1946 105.794 93.0077 105.18 91.4878 108.926C91.0367 110.04 90.9452 111.219 91.2132 112.465C94.5569 128.036 93.998 143.039 89.5659 158.826C85.0554 174.849 73.7399 186.268 56.3449 190.709C49.2262 192.514 42.0093 192.271 34.616 192.171C33.9633 192.161 33.3386 191.925 32.8662 191.511C32.3938 191.096 32.1084 190.533 32.0666 189.933C31.743 185.311 32.4 180.951 32.0273 176.501C31.8018 173.802 32.2725 171.112 32.2823 168.386C32.2954 157.144 32.3542 145.476 32.4588 133.38C32.4784 131.274 32.498 129.167 32.5176 127.061C32.6091 114.424 32.7039 101.786 32.802 89.1487C32.9 76.5924 32.9589 64.5416 32.9785 53.204C32.9883 46.0999 33.7237 38.9687 33.3609 31.5577C33.2628 29.5628 34.665 28.1637 36.832 28.1998C56.3188 28.5669 74.1975 28.6842 90.4681 28.5518C92.2036 28.5428 94.0176 28.8587 95.7728 28.8587C107.409 28.9009 118.901 28.9069 130.249 28.8768C133.7 28.8708 137.221 28.964 140.809 29.1566C147.173 29.4906 153.164 28.4977 159.41 31.5036Z" fill="white"/>
<path d="M238.728 142.5V54.692H254.6L292.104 106.532C292.531 107.044 293.043 107.769 293.64 108.708C294.237 109.561 294.792 110.415 295.304 111.268C295.816 112.121 296.157 112.804 296.328 113.316H296.968C296.968 112.121 296.968 110.969 296.968 109.86C296.968 108.751 296.968 107.641 296.968 106.532V54.692H312.968V142.5H297.224L259.592 90.276C258.909 89.252 258.099 88.0147 257.16 86.564C256.307 85.028 255.709 83.9613 255.368 83.364H254.728C254.728 84.4733 254.728 85.6253 254.728 86.82C254.728 87.9293 254.728 89.0813 254.728 90.276V142.5H238.728ZM361.022 144.036C353.683 144.036 347.539 142.799 342.59 140.324C337.641 137.764 333.929 133.881 331.454 128.676C328.979 123.471 327.742 116.857 327.742 108.836C327.742 100.729 328.979 94.116 331.454 88.996C333.929 83.7907 337.641 79.9507 342.59 77.476C347.539 74.916 353.683 73.636 361.022 73.636C368.446 73.636 374.59 74.916 379.454 77.476C384.403 79.9507 388.115 83.7907 390.59 88.996C393.065 94.116 394.302 100.729 394.302 108.836C394.302 116.857 393.065 123.471 390.59 128.676C388.115 133.881 384.403 137.764 379.454 140.324C374.59 142.799 368.446 144.036 361.022 144.036ZM361.022 131.236C365.118 131.236 368.403 130.468 370.878 128.932C373.438 127.311 375.273 124.921 376.382 121.764C377.577 118.521 378.174 114.511 378.174 109.732V107.94C378.174 103.161 377.577 99.1933 376.382 96.036C375.273 92.7933 373.438 90.404 370.878 88.868C368.403 87.2467 365.118 86.436 361.022 86.436C356.926 86.436 353.598 87.2467 351.038 88.868C348.563 90.404 346.729 92.7933 345.534 96.036C344.425 99.1933 343.87 103.161 343.87 107.94V109.732C343.87 114.511 344.425 118.521 345.534 121.764C346.729 124.921 348.563 127.311 351.038 128.932C353.598 130.468 356.926 131.236 361.022 131.236ZM425.362 144.036C421.181 144.036 417.895 143.225 415.506 141.604C413.117 139.897 411.41 137.764 410.386 135.204C409.447 132.559 408.978 129.871 408.978 127.14V87.972H400.914V75.172H409.362L412.178 56.356H424.594V75.172H436.242V87.972H424.594V125.604C424.594 127.396 425.063 128.804 426.002 129.828C426.941 130.767 428.349 131.236 430.226 131.236H436.242V141.988C435.389 142.329 434.322 142.628 433.042 142.884C431.847 143.225 430.567 143.481 429.202 143.652C427.837 143.908 426.557 144.036 425.362 144.036ZM476.748 144.036C469.58 144.036 463.607 142.799 458.828 140.324C454.049 137.764 450.465 133.881 448.076 128.676C445.687 123.471 444.492 116.857 444.492 108.836C444.492 100.729 445.687 94.116 448.076 88.996C450.465 83.7907 454.049 79.9507 458.828 77.476C463.607 74.916 469.58 73.636 476.748 73.636C483.233 73.636 488.652 74.8733 493.004 77.348C497.441 79.7373 500.769 83.4493 502.988 88.484C505.207 93.5187 506.316 100.047 506.316 108.068V112.676H460.492C460.663 116.857 461.303 120.399 462.412 123.3C463.521 126.116 465.228 128.249 467.532 129.7C469.921 131.065 473.036 131.748 476.876 131.748C478.839 131.748 480.673 131.492 482.38 130.98C484.087 130.468 485.58 129.7 486.86 128.676C488.14 127.567 489.121 126.201 489.804 124.58C490.572 122.959 490.956 121.081 490.956 118.948H506.316C506.316 123.215 505.548 126.927 504.012 130.084C502.561 133.241 500.471 135.844 497.74 137.892C495.095 139.94 491.98 141.476 488.396 142.5C484.812 143.524 480.929 144.036 476.748 144.036ZM460.748 101.668H490.06C490.06 98.852 489.719 96.4627 489.036 94.5C488.439 92.5373 487.543 90.916 486.348 89.636C485.239 88.356 483.873 87.46 482.252 86.948C480.631 86.3507 478.796 86.052 476.748 86.052C473.42 86.052 470.604 86.6067 468.3 87.716C466.081 88.8253 464.375 90.532 463.18 92.836C461.985 95.14 461.175 98.084 460.748 101.668ZM512.658 142.5L544.274 96.42L515.602 54.692H535.954L555.41 84.004H556.05L575.506 54.692H594.578L565.906 96.292L597.65 142.5H577.426L554.898 108.58H554.13L531.858 142.5H512.658Z" fill="white"/>
</svg>
